<?xml version="1.0" encoding="UTF-8" standalone="no"?>
<!DOCTYPE svg PUBLIC "-//W3C//DTD SVG 1.1//EN"
 "http://www.w3.org/Graphics/SVG/1.1/DTD/svg11.dtd">
<!-- Generated by graphviz version 2.40.1 (20161225.0304)
 -->
<!-- Title: G Pages: 1 -->
<svg width="740pt" height="2204pt"
 viewBox="0.00 0.00 739.91 2204.00" xmlns="http://www.w3.org/2000/svg" xmlns:xlink="http://www.w3.org/1999/xlink">
<g id="graph0" class="graph" transform="scale(1 1) rotate(0) translate(4 2200)">
<title>G</title>
<polygon fill="#ffffff" stroke="transparent" points="-4,4 -4,-2200 735.9072,-2200 735.9072,4 -4,4"/>
<!-- $r2 = new TA1 -->
<g id="node1" class="node">
<title>$r2 = new TA1</title>
<ellipse fill="none" stroke="#ff0000" cx="250.8777" cy="-1458" rx="65.7887" ry="18"/>
<text text-anchor="middle" x="250.8777" y="-1454.3" font-family="Times,serif" font-size="14.00" fill="#000000">$r2 = new TA1</text>
</g>
<!-- specialinvoke $r2.&lt;TA1: void &lt;init&gt;()&gt;() -->
<g id="node2" class="node">
<title>specialinvoke $r2.&lt;TA1: void &lt;init&gt;()&gt;()</title>
<ellipse fill="none" stroke="#ff0000" cx="250.8777" cy="-1386" rx="159.4721" ry="18"/>
<text text-anchor="middle" x="250.8777" y="-1382.3" font-family="Times,serif" font-size="14.00" fill="#000000">specialinvoke $r2.&lt;TA1: void &lt;init&gt;()&gt;()</text>
</g>
<!-- $r2 = new TA1&#45;&gt;specialinvoke $r2.&lt;TA1: void &lt;init&gt;()&gt;() -->
<g id="edge11" class="edge">
<title>$r2 = new TA1&#45;&gt;specialinvoke $r2.&lt;TA1: void &lt;init&gt;()&gt;()</title>
<path fill="none" stroke="#000000" d="M250.8777,-1439.8314C250.8777,-1432.131 250.8777,-1422.9743 250.8777,-1414.4166"/>
<polygon fill="#000000" stroke="#000000" points="254.3778,-1414.4132 250.8777,-1404.4133 247.3778,-1414.4133 254.3778,-1414.4132"/>
</g>
<!-- r3 = $r2 -->
<g id="node3" class="node">
<title>r3 = $r2</title>
<ellipse fill="none" stroke="#ff0000" cx="250.8777" cy="-1314" rx="40.0939" ry="18"/>
<text text-anchor="middle" x="250.8777" y="-1310.3" font-family="Times,serif" font-size="14.00" fill="#000000">r3 = $r2</text>
</g>
<!-- specialinvoke $r2.&lt;TA1: void &lt;init&gt;()&gt;()&#45;&gt;r3 = $r2 -->
<g id="edge12" class="edge">
<title>specialinvoke $r2.&lt;TA1: void &lt;init&gt;()&gt;()&#45;&gt;r3 = $r2</title>
<path fill="none" stroke="#000000" d="M250.8777,-1367.8314C250.8777,-1360.131 250.8777,-1350.9743 250.8777,-1342.4166"/>
<polygon fill="#000000" stroke="#000000" points="254.3778,-1342.4132 250.8777,-1332.4133 247.3778,-1342.4133 254.3778,-1342.4132"/>
</g>
<!-- $r4 = new TA1 -->
<g id="node4" class="node">
<title>$r4 = new TA1</title>
<ellipse fill="none" stroke="#ff0000" cx="250.8777" cy="-1242" rx="65.7887" ry="18"/>
<text text-anchor="middle" x="250.8777" y="-1238.3" font-family="Times,serif" font-size="14.00" fill="#000000">$r4 = new TA1</text>
</g>
<!-- r3 = $r2&#45;&gt;$r4 = new TA1 -->
<g id="edge13" class="edge">
<title>r3 = $r2&#45;&gt;$r4 = new TA1</title>
<path fill="none" stroke="#000000" d="M250.8777,-1295.8314C250.8777,-1288.131 250.8777,-1278.9743 250.8777,-1270.4166"/>
<polygon fill="#000000" stroke="#000000" points="254.3778,-1270.4132 250.8777,-1260.4133 247.3778,-1270.4133 254.3778,-1270.4132"/>
</g>
<!-- specialinvoke $r4.&lt;TA1: void &lt;init&gt;()&gt;() -->
<g id="node5" class="node">
<title>specialinvoke $r4.&lt;TA1: void &lt;init&gt;()&gt;()</title>
<ellipse fill="none" stroke="#ff0000" cx="250.8777" cy="-1170" rx="159.4721" ry="18"/>
<text text-anchor="middle" x="250.8777" y="-1166.3" font-family="Times,serif" font-size="14.00" fill="#000000">specialinvoke $r4.&lt;TA1: void &lt;init&gt;()&gt;()</text>
</g>
<!-- $r4 = new TA1&#45;&gt;specialinvoke $r4.&lt;TA1: void &lt;init&gt;()&gt;() -->
<g id="edge14" class="edge">
<title>$r4 = new TA1&#45;&gt;specialinvoke $r4.&lt;TA1: void &lt;init&gt;()&gt;()</title>
<path fill="none" stroke="#000000" d="M250.8777,-1223.8314C250.8777,-1216.131 250.8777,-1206.9743 250.8777,-1198.4166"/>
<polygon fill="#000000" stroke="#000000" points="254.3778,-1198.4132 250.8777,-1188.4133 247.3778,-1198.4133 254.3778,-1198.4132"/>
</g>
<!-- r5 = $r4 -->
<g id="node6" class="node">
<title>r5 = $r4</title>
<ellipse fill="none" stroke="#ff0000" cx="250.8777" cy="-1098" rx="40.0939" ry="18"/>
<text text-anchor="middle" x="250.8777" y="-1094.3" font-family="Times,serif" font-size="14.00" fill="#000000">r5 = $r4</text>
</g>
<!-- specialinvoke $r4.&lt;TA1: void &lt;init&gt;()&gt;()&#45;&gt;r5 = $r4 -->
<g id="edge15" class="edge">
<title>specialinvoke $r4.&lt;TA1: void &lt;init&gt;()&gt;()&#45;&gt;r5 = $r4</title>
<path fill="none" stroke="#000000" d="M250.8777,-1151.8314C250.8777,-1144.131 250.8777,-1134.9743 250.8777,-1126.4166"/>
<polygon fill="#000000" stroke="#000000" points="254.3778,-1126.4132 250.8777,-1116.4133 247.3778,-1126.4133 254.3778,-1126.4132"/>
</g>
<!-- if i4 &gt;= 11 goto $r6 = &lt;java.lang.System: java.io.PrintStream out&gt; -->
<g id="node21" class="node">
<title>if i4 &gt;= 11 goto $r6 = &lt;java.lang.System: java.io.PrintStream out&gt;</title>
<ellipse fill="none" stroke="#000000" cx="250.8777" cy="-1026" rx="250.7555" ry="18"/>
<text text-anchor="middle" x="250.8777" y="-1022.3" font-family="Times,serif" font-size="14.00" fill="#000000">if i4 &gt;= 11 goto $r6 = &lt;java.lang.System: java.io.PrintStream out&gt;</text>
</g>
<!-- r5 = $r4&#45;&gt;if i4 &gt;= 11 goto $r6 = &lt;java.lang.System: java.io.PrintStream out&gt; -->
<g id="edge16" class="edge">
<title>r5 = $r4&#45;&gt;if i4 &gt;= 11 goto $r6 = &lt;java.lang.System: java.io.PrintStream out&gt;</title>
<path fill="none" stroke="#000000" d="M250.8777,-1079.8314C250.8777,-1072.131 250.8777,-1062.9743 250.8777,-1054.4166"/>
<polygon fill="#000000" stroke="#000000" points="254.3778,-1054.4132 250.8777,-1044.4133 247.3778,-1054.4133 254.3778,-1054.4132"/>
</g>
<!-- r5.&lt;TA1: int f&gt; = 12 -->
<g id="node7" class="node">
<title>r5.&lt;TA1: int f&gt; = 12</title>
<ellipse fill="none" stroke="#ff0000" cx="499.8777" cy="-666" rx="85.5853" ry="18"/>
<text text-anchor="middle" x="499.8777" y="-662.3" font-family="Times,serif" font-size="14.00" fill="#000000">r5.&lt;TA1: int f&gt; = 12</text>
</g>
<!-- $i0 = virtualinvoke r3.&lt;TA1: int foo(TA1)&gt;(r3) -->
<g id="node8" class="node">
<title>$i0 = virtualinvoke r3.&lt;TA1: int foo(TA1)&gt;(r3)</title>
<ellipse fill="none" stroke="#ff0000" cx="499.8777" cy="-594" rx="181.168" ry="18"/>
<text text-anchor="middle" x="499.8777" y="-590.3" font-family="Times,serif" font-size="14.00" fill="#000000">$i0 = virtualinvoke r3.&lt;TA1: int foo(TA1)&gt;(r3)</text>
</g>
<!-- r5.&lt;TA1: int f&gt; = 12&#45;&gt;$i0 = virtualinvoke r3.&lt;TA1: int foo(TA1)&gt;(r3) -->
<g id="edge28" class="edge">
<title>r5.&lt;TA1: int f&gt; = 12&#45;&gt;$i0 = virtualinvoke r3.&lt;TA1: int foo(TA1)&gt;(r3)</title>
<path fill="none" stroke="#000000" d="M499.8777,-647.8314C499.8777,-640.131 499.8777,-630.9743 499.8777,-622.4166"/>
<polygon fill="#000000" stroke="#000000" points="503.3778,-622.4132 499.8777,-612.4133 496.3778,-622.4133 503.3778,-622.4132"/>
</g>
<!-- r5.&lt;TA1: int f&gt; = $i0 -->
<g id="node9" class="node">
<title>r5.&lt;TA1: int f&gt; = $i0</title>
<ellipse fill="none" stroke="#ff0000" cx="499.8777" cy="-522" rx="88.2844" ry="18"/>
<text text-anchor="middle" x="499.8777" y="-518.3" font-family="Times,serif" font-size="14.00" fill="#000000">r5.&lt;TA1: int f&gt; = $i0</text>
</g>
<!-- $i0 = virtualinvoke r3.&lt;TA1: int foo(TA1)&gt;(r3)&#45;&gt;r5.&lt;TA1: int f&gt; = $i0 -->
<g id="edge30" class="edge">
<title>$i0 = virtualinvoke r3.&lt;TA1: int foo(TA1)&gt;(r3)&#45;&gt;r5.&lt;TA1: int f&gt; = $i0</title>
<path fill="none" stroke="#000000" d="M499.8777,-575.8314C499.8777,-568.131 499.8777,-558.9743 499.8777,-550.4166"/>
<polygon fill="#000000" stroke="#000000" points="503.3778,-550.4132 499.8777,-540.4133 496.3778,-550.4133 503.3778,-550.4132"/>
</g>
<!-- $i1 = r5.&lt;TA1: int f&gt; -->
<g id="node32" class="node">
<title>$i1 = r5.&lt;TA1: int f&gt;</title>
<ellipse fill="none" stroke="#000000" cx="499.8777" cy="-450" rx="88.2844" ry="18"/>
<text text-anchor="middle" x="499.8777" y="-446.3" font-family="Times,serif" font-size="14.00" fill="#000000">$i1 = r5.&lt;TA1: int f&gt;</text>
</g>
<!-- r5.&lt;TA1: int f&gt; = $i0&#45;&gt;$i1 = r5.&lt;TA1: int f&gt; -->
<g id="edge31" class="edge">
<title>r5.&lt;TA1: int f&gt; = $i0&#45;&gt;$i1 = r5.&lt;TA1: int f&gt;</title>
<path fill="none" stroke="#000000" d="M499.8777,-503.8314C499.8777,-496.131 499.8777,-486.9743 499.8777,-478.4166"/>
<polygon fill="#000000" stroke="#000000" points="503.3778,-478.4132 499.8777,-468.4133 496.3778,-478.4133 503.3778,-478.4132"/>
</g>
<!-- staticinvoke &lt;Slice: void slicingCriteria(TA1)&gt;(r5) -->
<g id="node10" class="node">
<title>staticinvoke &lt;Slice: void slicingCriteria(TA1)&gt;(r5)</title>
<ellipse fill="none" stroke="#ff0000" cx="499.8777" cy="-306" rx="192.2659" ry="18"/>
<text text-anchor="middle" x="499.8777" y="-302.3" font-family="Times,serif" font-size="14.00" fill="#000000">staticinvoke &lt;Slice: void slicingCriteria(TA1)&gt;(r5)</text>
</g>
<!-- $r8 = &lt;java.lang.System: java.io.PrintStream out&gt; -->
<g id="node34" class="node">
<title>$r8 = &lt;java.lang.System: java.io.PrintStream out&gt;</title>
<ellipse fill="none" stroke="#000000" cx="499.8777" cy="-234" rx="191.9663" ry="18"/>
<text text-anchor="middle" x="499.8777" y="-230.3" font-family="Times,serif" font-size="14.00" fill="#000000">$r8 = &lt;java.lang.System: java.io.PrintStream out&gt;</text>
</g>
<!-- staticinvoke &lt;Slice: void slicingCriteria(TA1)&gt;(r5)&#45;&gt;$r8 = &lt;java.lang.System: java.io.PrintStream out&gt; -->
<g id="edge34" class="edge">
<title>staticinvoke &lt;Slice: void slicingCriteria(TA1)&gt;(r5)&#45;&gt;$r8 = &lt;java.lang.System: java.io.PrintStream out&gt;</title>
<path fill="none" stroke="#000000" d="M499.8777,-287.8314C499.8777,-280.131 499.8777,-270.9743 499.8777,-262.4166"/>
<polygon fill="#000000" stroke="#000000" points="503.3778,-262.4132 499.8777,-252.4133 496.3778,-262.4133 503.3778,-262.4132"/>
</g>
<!-- r9 := @parameter0: java.lang.String[] -->
<g id="node11" class="node">
<title>r9 := @parameter0: java.lang.String[]</title>
<ellipse fill="none" stroke="#000000" cx="250.8777" cy="-2178" rx="145.6742" ry="18"/>
<text text-anchor="middle" x="250.8777" y="-2174.3" font-family="Times,serif" font-size="14.00" fill="#000000">r9 := @parameter0: java.lang.String[]</text>
</g>
<!-- i3 = 0 -->
<g id="node12" class="node">
<title>i3 = 0</title>
<ellipse fill="none" stroke="#000000" cx="250.8777" cy="-2106" rx="32.4942" ry="18"/>
<text text-anchor="middle" x="250.8777" y="-2102.3" font-family="Times,serif" font-size="14.00" fill="#000000">i3 = 0</text>
</g>
<!-- r9 := @parameter0: java.lang.String[]&#45;&gt;i3 = 0 -->
<g id="edge1" class="edge">
<title>r9 := @parameter0: java.lang.String[]&#45;&gt;i3 = 0</title>
<path fill="none" stroke="#000000" d="M250.8777,-2159.8314C250.8777,-2152.131 250.8777,-2142.9743 250.8777,-2134.4166"/>
<polygon fill="#000000" stroke="#000000" points="254.3778,-2134.4132 250.8777,-2124.4133 247.3778,-2134.4133 254.3778,-2134.4132"/>
</g>
<!-- i4 = 0 -->
<g id="node13" class="node">
<title>i4 = 0</title>
<ellipse fill="none" stroke="#000000" cx="250.8777" cy="-2034" rx="32.4942" ry="18"/>
<text text-anchor="middle" x="250.8777" y="-2030.3" font-family="Times,serif" font-size="14.00" fill="#000000">i4 = 0</text>
</g>
<!-- i3 = 0&#45;&gt;i4 = 0 -->
<g id="edge2" class="edge">
<title>i3 = 0&#45;&gt;i4 = 0</title>
<path fill="none" stroke="#000000" d="M250.8777,-2087.8314C250.8777,-2080.131 250.8777,-2070.9743 250.8777,-2062.4166"/>
<polygon fill="#000000" stroke="#000000" points="254.3778,-2062.4132 250.8777,-2052.4133 247.3778,-2062.4133 254.3778,-2062.4132"/>
</g>
<!-- i5 = 1 -->
<g id="node14" class="node">
<title>i5 = 1</title>
<ellipse fill="none" stroke="#000000" cx="250.8777" cy="-1962" rx="32.4942" ry="18"/>
<text text-anchor="middle" x="250.8777" y="-1958.3" font-family="Times,serif" font-size="14.00" fill="#000000">i5 = 1</text>
</g>
<!-- i4 = 0&#45;&gt;i5 = 1 -->
<g id="edge3" class="edge">
<title>i4 = 0&#45;&gt;i5 = 1</title>
<path fill="none" stroke="#000000" d="M250.8777,-2015.8314C250.8777,-2008.131 250.8777,-1998.9743 250.8777,-1990.4166"/>
<polygon fill="#000000" stroke="#000000" points="254.3778,-1990.4132 250.8777,-1980.4133 247.3778,-1990.4133 254.3778,-1990.4132"/>
</g>
<!-- i6 = 2 -->
<g id="node15" class="node">
<title>i6 = 2</title>
<ellipse fill="none" stroke="#000000" cx="250.8777" cy="-1890" rx="32.4942" ry="18"/>
<text text-anchor="middle" x="250.8777" y="-1886.3" font-family="Times,serif" font-size="14.00" fill="#000000">i6 = 2</text>
</g>
<!-- i5 = 1&#45;&gt;i6 = 2 -->
<g id="edge4" class="edge">
<title>i5 = 1&#45;&gt;i6 = 2</title>
<path fill="none" stroke="#000000" d="M250.8777,-1943.8314C250.8777,-1936.131 250.8777,-1926.9743 250.8777,-1918.4166"/>
<polygon fill="#000000" stroke="#000000" points="254.3778,-1918.4132 250.8777,-1908.4133 247.3778,-1918.4133 254.3778,-1918.4132"/>
</g>
<!-- i7 = 3 -->
<g id="node16" class="node">
<title>i7 = 3</title>
<ellipse fill="none" stroke="#000000" cx="250.8777" cy="-1818" rx="32.4942" ry="18"/>
<text text-anchor="middle" x="250.8777" y="-1814.3" font-family="Times,serif" font-size="14.00" fill="#000000">i7 = 3</text>
</g>
<!-- i6 = 2&#45;&gt;i7 = 3 -->
<g id="edge5" class="edge">
<title>i6 = 2&#45;&gt;i7 = 3</title>
<path fill="none" stroke="#000000" d="M250.8777,-1871.8314C250.8777,-1864.131 250.8777,-1854.9743 250.8777,-1846.4166"/>
<polygon fill="#000000" stroke="#000000" points="254.3778,-1846.4132 250.8777,-1836.4133 247.3778,-1846.4133 254.3778,-1846.4132"/>
</g>
<!-- i8 = 4 -->
<g id="node17" class="node">
<title>i8 = 4</title>
<ellipse fill="none" stroke="#000000" cx="250.8777" cy="-1746" rx="32.4942" ry="18"/>
<text text-anchor="middle" x="250.8777" y="-1742.3" font-family="Times,serif" font-size="14.00" fill="#000000">i8 = 4</text>
</g>
<!-- i7 = 3&#45;&gt;i8 = 4 -->
<g id="edge6" class="edge">
<title>i7 = 3&#45;&gt;i8 = 4</title>
<path fill="none" stroke="#000000" d="M250.8777,-1799.8314C250.8777,-1792.131 250.8777,-1782.9743 250.8777,-1774.4166"/>
<polygon fill="#000000" stroke="#000000" points="254.3778,-1774.4132 250.8777,-1764.4133 247.3778,-1774.4133 254.3778,-1774.4132"/>
</g>
<!-- $r0 = new TA1 -->
<g id="node18" class="node">
<title>$r0 = new TA1</title>
<ellipse fill="none" stroke="#000000" cx="250.8777" cy="-1674" rx="65.7887" ry="18"/>
<text text-anchor="middle" x="250.8777" y="-1670.3" font-family="Times,serif" font-size="14.00" fill="#000000">$r0 = new TA1</text>
</g>
<!-- i8 = 4&#45;&gt;$r0 = new TA1 -->
<g id="edge7" class="edge">
<title>i8 = 4&#45;&gt;$r0 = new TA1</title>
<path fill="none" stroke="#000000" d="M250.8777,-1727.8314C250.8777,-1720.131 250.8777,-1710.9743 250.8777,-1702.4166"/>
<polygon fill="#000000" stroke="#000000" points="254.3778,-1702.4132 250.8777,-1692.4133 247.3778,-1702.4133 254.3778,-1702.4132"/>
</g>
<!-- specialinvoke $r0.&lt;TA1: void &lt;init&gt;()&gt;() -->
<g id="node19" class="node">
<title>specialinvoke $r0.&lt;TA1: void &lt;init&gt;()&gt;()</title>
<ellipse fill="none" stroke="#000000" cx="250.8777" cy="-1602" rx="159.4721" ry="18"/>
<text text-anchor="middle" x="250.8777" y="-1598.3" font-family="Times,serif" font-size="14.00" fill="#000000">specialinvoke $r0.&lt;TA1: void &lt;init&gt;()&gt;()</text>
</g>
<!-- $r0 = new TA1&#45;&gt;specialinvoke $r0.&lt;TA1: void &lt;init&gt;()&gt;() -->
<g id="edge8" class="edge">
<title>$r0 = new TA1&#45;&gt;specialinvoke $r0.&lt;TA1: void &lt;init&gt;()&gt;()</title>
<path fill="none" stroke="#000000" d="M250.8777,-1655.8314C250.8777,-1648.131 250.8777,-1638.9743 250.8777,-1630.4166"/>
<polygon fill="#000000" stroke="#000000" points="254.3778,-1630.4132 250.8777,-1620.4133 247.3778,-1630.4133 254.3778,-1630.4132"/>
</g>
<!-- r1 = $r0 -->
<g id="node20" class="node">
<title>r1 = $r0</title>
<ellipse fill="none" stroke="#000000" cx="250.8777" cy="-1530" rx="40.0939" ry="18"/>
<text text-anchor="middle" x="250.8777" y="-1526.3" font-family="Times,serif" font-size="14.00" fill="#000000">r1 = $r0</text>
</g>
<!-- specialinvoke $r0.&lt;TA1: void &lt;init&gt;()&gt;()&#45;&gt;r1 = $r0 -->
<g id="edge9" class="edge">
<title>specialinvoke $r0.&lt;TA1: void &lt;init&gt;()&gt;()&#45;&gt;r1 = $r0</title>
<path fill="none" stroke="#000000" d="M250.8777,-1583.8314C250.8777,-1576.131 250.8777,-1566.9743 250.8777,-1558.4166"/>
<polygon fill="#000000" stroke="#000000" points="254.3778,-1558.4132 250.8777,-1548.4133 247.3778,-1558.4133 254.3778,-1558.4132"/>
</g>
<!-- r1 = $r0&#45;&gt;$r2 = new TA1 -->
<g id="edge10" class="edge">
<title>r1 = $r0&#45;&gt;$r2 = new TA1</title>
<path fill="none" stroke="#000000" d="M250.8777,-1511.8314C250.8777,-1504.131 250.8777,-1494.9743 250.8777,-1486.4166"/>
<polygon fill="#000000" stroke="#000000" points="254.3778,-1486.4132 250.8777,-1476.4133 247.3778,-1486.4133 254.3778,-1486.4132"/>
</g>
<!-- i3 = i3 + i4 -->
<g id="node22" class="node">
<title>i3 = i3 + i4</title>
<ellipse fill="none" stroke="#000000" cx="170.8777" cy="-954" rx="51.9908" ry="18"/>
<text text-anchor="middle" x="170.8777" y="-950.3" font-family="Times,serif" font-size="14.00" fill="#000000">i3 = i3 + i4</text>
</g>
<!-- if i4 &gt;= 11 goto $r6 = &lt;java.lang.System: java.io.PrintStream out&gt;&#45;&gt;i3 = i3 + i4 -->
<g id="edge17" class="edge">
<title>if i4 &gt;= 11 goto $r6 = &lt;java.lang.System: java.io.PrintStream out&gt;&#45;&gt;i3 = i3 + i4</title>
<path fill="none" stroke="#000000" d="M230.6904,-1007.8314C220.5591,-998.7132 208.1593,-987.5534 197.2819,-977.7637"/>
<polygon fill="#000000" stroke="#000000" points="199.4591,-975.0144 189.6847,-970.9263 194.7763,-980.2175 199.4591,-975.0144"/>
</g>
<!-- $r6 = &lt;java.lang.System: java.io.PrintStream out&gt; -->
<g id="node23" class="node">
<title>$r6 = &lt;java.lang.System: java.io.PrintStream out&gt;</title>
<ellipse fill="none" stroke="#000000" cx="484.8777" cy="-954" rx="191.9663" ry="18"/>
<text text-anchor="middle" x="484.8777" y="-950.3" font-family="Times,serif" font-size="14.00" fill="#000000">$r6 = &lt;java.lang.System: java.io.PrintStream out&gt;</text>
</g>
<!-- if i4 &gt;= 11 goto $r6 = &lt;java.lang.System: java.io.PrintStream out&gt;&#45;&gt;$r6 = &lt;java.lang.System: java.io.PrintStream out&gt; -->
<g id="edge18" class="edge">
<title>if i4 &gt;= 11 goto $r6 = &lt;java.lang.System: java.io.PrintStream out&gt;&#45;&gt;$r6 = &lt;java.lang.System: java.io.PrintStream out&gt;</title>
<path fill="none" stroke="#000000" d="M308.1206,-1008.3868C341.6367,-998.0742 384.0959,-985.0098 418.9995,-974.2702"/>
<polygon fill="#000000" stroke="#000000" points="420.1016,-977.5931 428.6301,-971.307 418.0429,-970.9027 420.1016,-977.5931"/>
</g>
<!-- i4 = i4 + 1 -->
<g id="node24" class="node">
<title>i4 = i4 + 1</title>
<ellipse fill="none" stroke="#000000" cx="170.8777" cy="-882" rx="49.2915" ry="18"/>
<text text-anchor="middle" x="170.8777" y="-878.3" font-family="Times,serif" font-size="14.00" fill="#000000">i4 = i4 + 1</text>
</g>
<!-- i3 = i3 + i4&#45;&gt;i4 = i4 + 1 -->
<g id="edge19" class="edge">
<title>i3 = i3 + i4&#45;&gt;i4 = i4 + 1</title>
<path fill="none" stroke="#000000" d="M170.8777,-935.8314C170.8777,-928.131 170.8777,-918.9743 170.8777,-910.4166"/>
<polygon fill="#000000" stroke="#000000" points="174.3778,-910.4132 170.8777,-900.4133 167.3778,-910.4133 174.3778,-910.4132"/>
</g>
<!-- virtualinvoke $r6.&lt;java.io.PrintStream: void print(int)&gt;(i3) -->
<g id="node25" class="node">
<title>virtualinvoke $r6.&lt;java.io.PrintStream: void print(int)&gt;(i3)</title>
<ellipse fill="none" stroke="#000000" cx="499.8777" cy="-882" rx="220.9608" ry="18"/>
<text text-anchor="middle" x="499.8777" y="-878.3" font-family="Times,serif" font-size="14.00" fill="#000000">virtualinvoke $r6.&lt;java.io.PrintStream: void print(int)&gt;(i3)</text>
</g>
<!-- $r6 = &lt;java.lang.System: java.io.PrintStream out&gt;&#45;&gt;virtualinvoke $r6.&lt;java.io.PrintStream: void print(int)&gt;(i3) -->
<g id="edge20" class="edge">
<title>$r6 = &lt;java.lang.System: java.io.PrintStream out&gt;&#45;&gt;virtualinvoke $r6.&lt;java.io.PrintStream: void print(int)&gt;(i3)</title>
<path fill="none" stroke="#000000" d="M488.6629,-935.8314C490.2671,-928.131 492.1748,-918.9743 493.9576,-910.4166"/>
<polygon fill="#000000" stroke="#000000" points="497.4285,-910.9169 496.0416,-900.4133 490.5756,-909.4892 497.4285,-910.9169"/>
</g>
<!-- i5 = i5 + i4 -->
<g id="node26" class="node">
<title>i5 = i5 + i4</title>
<ellipse fill="none" stroke="#000000" cx="170.8777" cy="-810" rx="51.9908" ry="18"/>
<text text-anchor="middle" x="170.8777" y="-806.3" font-family="Times,serif" font-size="14.00" fill="#000000">i5 = i5 + i4</text>
</g>
<!-- i4 = i4 + 1&#45;&gt;i5 = i5 + i4 -->
<g id="edge21" class="edge">
<title>i4 = i4 + 1&#45;&gt;i5 = i5 + i4</title>
<path fill="none" stroke="#000000" d="M170.8777,-863.8314C170.8777,-856.131 170.8777,-846.9743 170.8777,-838.4166"/>
<polygon fill="#000000" stroke="#000000" points="174.3778,-838.4132 170.8777,-828.4133 167.3778,-838.4133 174.3778,-838.4132"/>
</g>
<!-- $r7 = &lt;java.lang.System: java.io.PrintStream out&gt; -->
<g id="node27" class="node">
<title>$r7 = &lt;java.lang.System: java.io.PrintStream out&gt;</title>
<ellipse fill="none" stroke="#000000" cx="499.8777" cy="-810" rx="191.9663" ry="18"/>
<text text-anchor="middle" x="499.8777" y="-806.3" font-family="Times,serif" font-size="14.00" fill="#000000">$r7 = &lt;java.lang.System: java.io.PrintStream out&gt;</text>
</g>
<!-- virtualinvoke $r6.&lt;java.io.PrintStream: void print(int)&gt;(i3)&#45;&gt;$r7 = &lt;java.lang.System: java.io.PrintStream out&gt; -->
<g id="edge22" class="edge">
<title>virtualinvoke $r6.&lt;java.io.PrintStream: void print(int)&gt;(i3)&#45;&gt;$r7 = &lt;java.lang.System: java.io.PrintStream out&gt;</title>
<path fill="none" stroke="#000000" d="M499.8777,-863.8314C499.8777,-856.131 499.8777,-846.9743 499.8777,-838.4166"/>
<polygon fill="#000000" stroke="#000000" points="503.3778,-838.4132 499.8777,-828.4133 496.3778,-838.4133 503.3778,-838.4132"/>
</g>
<!-- i6 = i6 + i4 -->
<g id="node28" class="node">
<title>i6 = i6 + i4</title>
<ellipse fill="none" stroke="#000000" cx="170.8777" cy="-738" rx="51.9908" ry="18"/>
<text text-anchor="middle" x="170.8777" y="-734.3" font-family="Times,serif" font-size="14.00" fill="#000000">i6 = i6 + i4</text>
</g>
<!-- i5 = i5 + i4&#45;&gt;i6 = i6 + i4 -->
<g id="edge23" class="edge">
<title>i5 = i5 + i4&#45;&gt;i6 = i6 + i4</title>
<path fill="none" stroke="#000000" d="M170.8777,-791.8314C170.8777,-784.131 170.8777,-774.9743 170.8777,-766.4166"/>
<polygon fill="#000000" stroke="#000000" points="174.3778,-766.4132 170.8777,-756.4133 167.3778,-766.4133 174.3778,-766.4132"/>
</g>
<!-- virtualinvoke $r7.&lt;java.io.PrintStream: void print(int)&gt;(i4) -->
<g id="node29" class="node">
<title>virtualinvoke $r7.&lt;java.io.PrintStream: void print(int)&gt;(i4)</title>
<ellipse fill="none" stroke="#000000" cx="499.8777" cy="-738" rx="220.9608" ry="18"/>
<text text-anchor="middle" x="499.8777" y="-734.3" font-family="Times,serif" font-size="14.00" fill="#000000">virtualinvoke $r7.&lt;java.io.PrintStream: void print(int)&gt;(i4)</text>
</g>
<!-- $r7 = &lt;java.lang.System: java.io.PrintStream out&gt;&#45;&gt;virtualinvoke $r7.&lt;java.io.PrintStream: void print(int)&gt;(i4) -->
<g id="edge24" class="edge">
<title>$r7 = &lt;java.lang.System: java.io.PrintStream out&gt;&#45;&gt;virtualinvoke $r7.&lt;java.io.PrintStream: void print(int)&gt;(i4)</title>
<path fill="none" stroke="#000000" d="M499.8777,-791.8314C499.8777,-784.131 499.8777,-774.9743 499.8777,-766.4166"/>
<polygon fill="#000000" stroke="#000000" points="503.3778,-766.4132 499.8777,-756.4133 496.3778,-766.4133 503.3778,-766.4132"/>
</g>
<!-- i7 = i7 + i4 -->
<g id="node30" class="node">
<title>i7 = i7 + i4</title>
<ellipse fill="none" stroke="#000000" cx="170.8777" cy="-666" rx="51.9908" ry="18"/>
<text text-anchor="middle" x="170.8777" y="-662.3" font-family="Times,serif" font-size="14.00" fill="#000000">i7 = i7 + i4</text>
</g>
<!-- i6 = i6 + i4&#45;&gt;i7 = i7 + i4 -->
<g id="edge25" class="edge">
<title>i6 = i6 + i4&#45;&gt;i7 = i7 + i4</title>
<path fill="none" stroke="#000000" d="M170.8777,-719.8314C170.8777,-712.131 170.8777,-702.9743 170.8777,-694.4166"/>
<polygon fill="#000000" stroke="#000000" points="174.3778,-694.4132 170.8777,-684.4133 167.3778,-694.4133 174.3778,-694.4132"/>
</g>
<!-- virtualinvoke $r7.&lt;java.io.PrintStream: void print(int)&gt;(i4)&#45;&gt;r5.&lt;TA1: int f&gt; = 12 -->
<g id="edge26" class="edge">
<title>virtualinvoke $r7.&lt;java.io.PrintStream: void print(int)&gt;(i4)&#45;&gt;r5.&lt;TA1: int f&gt; = 12</title>
<path fill="none" stroke="#000000" d="M499.8777,-719.8314C499.8777,-712.131 499.8777,-702.9743 499.8777,-694.4166"/>
<polygon fill="#000000" stroke="#000000" points="503.3778,-694.4132 499.8777,-684.4133 496.3778,-694.4133 503.3778,-694.4132"/>
</g>
<!-- i8 = i8 + i3 -->
<g id="node31" class="node">
<title>i8 = i8 + i3</title>
<ellipse fill="none" stroke="#000000" cx="209.8777" cy="-594" rx="51.9908" ry="18"/>
<text text-anchor="middle" x="209.8777" y="-590.3" font-family="Times,serif" font-size="14.00" fill="#000000">i8 = i8 + i3</text>
</g>
<!-- i7 = i7 + i4&#45;&gt;i8 = i8 + i3 -->
<g id="edge27" class="edge">
<title>i7 = i7 + i4&#45;&gt;i8 = i8 + i3</title>
<path fill="none" stroke="#000000" d="M180.5182,-648.2022C185.0182,-639.8944 190.469,-629.8316 195.4463,-620.6427"/>
<polygon fill="#000000" stroke="#000000" points="198.5277,-622.3025 200.213,-611.8425 192.3726,-618.9685 198.5277,-622.3025"/>
</g>
<!-- i8 = i8 + i3&#45;&gt;if i4 &gt;= 11 goto $r6 = &lt;java.lang.System: java.io.PrintStream out&gt; -->
<g id="edge29" class="edge">
<title>i8 = i8 + i3&#45;&gt;if i4 &gt;= 11 goto $r6 = &lt;java.lang.System: java.io.PrintStream out&gt;</title>
<path fill="none" stroke="#000000" d="M218.5728,-612.1676C230.608,-639.0279 250.8777,-691.2115 250.8777,-738 250.8777,-882 250.8777,-882 250.8777,-882 250.8777,-922.124 250.8777,-968.5369 250.8777,-997.5823"/>
<polygon fill="#000000" stroke="#000000" points="247.3778,-997.8146 250.8777,-1007.8146 254.3778,-997.8147 247.3778,-997.8146"/>
</g>
<!-- r1.&lt;TA1: int f&gt; = $i1 -->
<g id="node33" class="node">
<title>r1.&lt;TA1: int f&gt; = $i1</title>
<ellipse fill="none" stroke="#000000" cx="499.8777" cy="-378" rx="88.2844" ry="18"/>
<text text-anchor="middle" x="499.8777" y="-374.3" font-family="Times,serif" font-size="14.00" fill="#000000">r1.&lt;TA1: int f&gt; = $i1</text>
</g>
<!-- $i1 = r5.&lt;TA1: int f&gt;&#45;&gt;r1.&lt;TA1: int f&gt; = $i1 -->
<g id="edge32" class="edge">
<title>$i1 = r5.&lt;TA1: int f&gt;&#45;&gt;r1.&lt;TA1: int f&gt; = $i1</title>
<path fill="none" stroke="#000000" d="M499.8777,-431.8314C499.8777,-424.131 499.8777,-414.9743 499.8777,-406.4166"/>
<polygon fill="#000000" stroke="#000000" points="503.3778,-406.4132 499.8777,-396.4133 496.3778,-406.4133 503.3778,-406.4132"/>
</g>
<!-- r1.&lt;TA1: int f&gt; = $i1&#45;&gt;staticinvoke &lt;Slice: void slicingCriteria(TA1)&gt;(r5) -->
<g id="edge33" class="edge">
<title>r1.&lt;TA1: int f&gt; = $i1&#45;&gt;staticinvoke &lt;Slice: void slicingCriteria(TA1)&gt;(r5)</title>
<path fill="none" stroke="#000000" d="M499.8777,-359.8314C499.8777,-352.131 499.8777,-342.9743 499.8777,-334.4166"/>
<polygon fill="#000000" stroke="#000000" points="503.3778,-334.4132 499.8777,-324.4133 496.3778,-334.4133 503.3778,-334.4132"/>
</g>
<!-- $i2 = r1.&lt;TA1: int f&gt; -->
<g id="node35" class="node">
<title>$i2 = r1.&lt;TA1: int f&gt;</title>
<ellipse fill="none" stroke="#000000" cx="499.8777" cy="-162" rx="88.2844" ry="18"/>
<text text-anchor="middle" x="499.8777" y="-158.3" font-family="Times,serif" font-size="14.00" fill="#000000">$i2 = r1.&lt;TA1: int f&gt;</text>
</g>
<!-- $r8 = &lt;java.lang.System: java.io.PrintStream out&gt;&#45;&gt;$i2 = r1.&lt;TA1: int f&gt; -->
<g id="edge35" class="edge">
<title>$r8 = &lt;java.lang.System: java.io.PrintStream out&gt;&#45;&gt;$i2 = r1.&lt;TA1: int f&gt;</title>
<path fill="none" stroke="#000000" d="M499.8777,-215.8314C499.8777,-208.131 499.8777,-198.9743 499.8777,-190.4166"/>
<polygon fill="#000000" stroke="#000000" points="503.3778,-190.4132 499.8777,-180.4133 496.3778,-190.4133 503.3778,-190.4132"/>
</g>
<!-- virtualinvoke $r8.&lt;java.io.PrintStream: void println(int)&gt;($i2) -->
<g id="node36" class="node">
<title>virtualinvoke $r8.&lt;java.io.PrintStream: void println(int)&gt;($i2)</title>
<ellipse fill="none" stroke="#000000" cx="499.8777" cy="-90" rx="232.0588" ry="18"/>
<text text-anchor="middle" x="499.8777" y="-86.3" font-family="Times,serif" font-size="14.00" fill="#000000">virtualinvoke $r8.&lt;java.io.PrintStream: void println(int)&gt;($i2)</text>
</g>
<!-- $i2 = r1.&lt;TA1: int f&gt;&#45;&gt;virtualinvoke $r8.&lt;java.io.PrintStream: void println(int)&gt;($i2) -->
<g id="edge36" class="edge">
<title>$i2 = r1.&lt;TA1: int f&gt;&#45;&gt;virtualinvoke $r8.&lt;java.io.PrintStream: void println(int)&gt;($i2)</title>
<path fill="none" stroke="#000000" d="M499.8777,-143.8314C499.8777,-136.131 499.8777,-126.9743 499.8777,-118.4166"/>
<polygon fill="#000000" stroke="#000000" points="503.3778,-118.4132 499.8777,-108.4133 496.3778,-118.4133 503.3778,-118.4132"/>
</g>
<!-- return -->
<g id="node37" class="node">
<title>return</title>
<ellipse fill="none" stroke="#000000" cx="499.8777" cy="-18" rx="31.6951" ry="18"/>
<text text-anchor="middle" x="499.8777" y="-14.3" font-family="Times,serif" font-size="14.00" fill="#000000">return</text>
</g>
<!-- virtualinvoke $r8.&lt;java.io.PrintStream: void println(int)&gt;($i2)&#45;&gt;return -->
<g id="edge37" class="edge">
<title>virtualinvoke $r8.&lt;java.io.PrintStream: void println(int)&gt;($i2)&#45;&gt;return</title>
<path fill="none" stroke="#000000" d="M499.8777,-71.8314C499.8777,-64.131 499.8777,-54.9743 499.8777,-46.4166"/>
<polygon fill="#000000" stroke="#000000" points="503.3778,-46.4132 499.8777,-36.4133 496.3778,-46.4133 503.3778,-46.4132"/>
</g>
</g>
</svg>
