<?xml version="1.0" encoding="UTF-8" standalone="no"?>
<!DOCTYPE svg PUBLIC "-//W3C//DTD SVG 1.1//EN"
 "http://www.w3.org/Graphics/SVG/1.1/DTD/svg11.dtd">
<!-- Generated by graphviz version 2.40.1 (20161225.0304)
 -->
<!-- Title: G Pages: 1 -->
<svg width="762pt" height="1628pt"
 viewBox="0.00 0.00 762.01 1628.00" xmlns="http://www.w3.org/2000/svg" xmlns:xlink="http://www.w3.org/1999/xlink">
<g id="graph0" class="graph" transform="scale(1 1) rotate(0) translate(4 1624)">
<title>G</title>
<polygon fill="#ffffff" stroke="transparent" points="-4,4 -4,-1624 758.0121,-1624 758.0121,4 -4,4"/>
<!-- $r0 = new TA4 -->
<g id="node1" class="node">
<title>$r0 = new TA4</title>
<ellipse fill="none" stroke="#ff0000" cx="415.1263" cy="-1530" rx="65.7887" ry="18"/>
<text text-anchor="middle" x="415.1263" y="-1526.3" font-family="Times,serif" font-size="14.00" fill="#000000">$r0 = new TA4</text>
</g>
<!-- specialinvoke $r0.&lt;TA4: void &lt;init&gt;()&gt;() -->
<g id="node2" class="node">
<title>specialinvoke $r0.&lt;TA4: void &lt;init&gt;()&gt;()</title>
<ellipse fill="none" stroke="#ff0000" cx="415.1263" cy="-1458" rx="159.4721" ry="18"/>
<text text-anchor="middle" x="415.1263" y="-1454.3" font-family="Times,serif" font-size="14.00" fill="#000000">specialinvoke $r0.&lt;TA4: void &lt;init&gt;()&gt;()</text>
</g>
<!-- $r0 = new TA4&#45;&gt;specialinvoke $r0.&lt;TA4: void &lt;init&gt;()&gt;() -->
<g id="edge2" class="edge">
<title>$r0 = new TA4&#45;&gt;specialinvoke $r0.&lt;TA4: void &lt;init&gt;()&gt;()</title>
<path fill="none" stroke="#000000" d="M415.1263,-1511.8314C415.1263,-1504.131 415.1263,-1494.9743 415.1263,-1486.4166"/>
<polygon fill="#000000" stroke="#000000" points="418.6264,-1486.4132 415.1263,-1476.4133 411.6264,-1486.4133 418.6264,-1486.4132"/>
</g>
<!-- r1 = $r0 -->
<g id="node3" class="node">
<title>r1 = $r0</title>
<ellipse fill="none" stroke="#ff0000" cx="415.1263" cy="-1386" rx="40.0939" ry="18"/>
<text text-anchor="middle" x="415.1263" y="-1382.3" font-family="Times,serif" font-size="14.00" fill="#000000">r1 = $r0</text>
</g>
<!-- specialinvoke $r0.&lt;TA4: void &lt;init&gt;()&gt;()&#45;&gt;r1 = $r0 -->
<g id="edge3" class="edge">
<title>specialinvoke $r0.&lt;TA4: void &lt;init&gt;()&gt;()&#45;&gt;r1 = $r0</title>
<path fill="none" stroke="#000000" d="M415.1263,-1439.8314C415.1263,-1432.131 415.1263,-1422.9743 415.1263,-1414.4166"/>
<polygon fill="#000000" stroke="#000000" points="418.6264,-1414.4132 415.1263,-1404.4133 411.6264,-1414.4133 418.6264,-1414.4132"/>
</g>
<!-- $r2 = new TA4 -->
<g id="node4" class="node">
<title>$r2 = new TA4</title>
<ellipse fill="none" stroke="#ff0000" cx="415.1263" cy="-1314" rx="65.7887" ry="18"/>
<text text-anchor="middle" x="415.1263" y="-1310.3" font-family="Times,serif" font-size="14.00" fill="#000000">$r2 = new TA4</text>
</g>
<!-- r1 = $r0&#45;&gt;$r2 = new TA4 -->
<g id="edge4" class="edge">
<title>r1 = $r0&#45;&gt;$r2 = new TA4</title>
<path fill="none" stroke="#000000" d="M415.1263,-1367.8314C415.1263,-1360.131 415.1263,-1350.9743 415.1263,-1342.4166"/>
<polygon fill="#000000" stroke="#000000" points="418.6264,-1342.4132 415.1263,-1332.4133 411.6264,-1342.4133 418.6264,-1342.4132"/>
</g>
<!-- specialinvoke $r2.&lt;TA4: void &lt;init&gt;(int)&gt;(10) -->
<g id="node5" class="node">
<title>specialinvoke $r2.&lt;TA4: void &lt;init&gt;(int)&gt;(10)</title>
<ellipse fill="none" stroke="#ff0000" cx="415.1263" cy="-1242" rx="177.3685" ry="18"/>
<text text-anchor="middle" x="415.1263" y="-1238.3" font-family="Times,serif" font-size="14.00" fill="#000000">specialinvoke $r2.&lt;TA4: void &lt;init&gt;(int)&gt;(10)</text>
</g>
<!-- $r2 = new TA4&#45;&gt;specialinvoke $r2.&lt;TA4: void &lt;init&gt;(int)&gt;(10) -->
<g id="edge5" class="edge">
<title>$r2 = new TA4&#45;&gt;specialinvoke $r2.&lt;TA4: void &lt;init&gt;(int)&gt;(10)</title>
<path fill="none" stroke="#000000" d="M415.1263,-1295.8314C415.1263,-1288.131 415.1263,-1278.9743 415.1263,-1270.4166"/>
<polygon fill="#000000" stroke="#000000" points="418.6264,-1270.4132 415.1263,-1260.4133 411.6264,-1270.4133 418.6264,-1270.4132"/>
</g>
<!-- r3 = $r2 -->
<g id="node6" class="node">
<title>r3 = $r2</title>
<ellipse fill="none" stroke="#ff0000" cx="415.1263" cy="-1170" rx="40.0939" ry="18"/>
<text text-anchor="middle" x="415.1263" y="-1166.3" font-family="Times,serif" font-size="14.00" fill="#000000">r3 = $r2</text>
</g>
<!-- specialinvoke $r2.&lt;TA4: void &lt;init&gt;(int)&gt;(10)&#45;&gt;r3 = $r2 -->
<g id="edge6" class="edge">
<title>specialinvoke $r2.&lt;TA4: void &lt;init&gt;(int)&gt;(10)&#45;&gt;r3 = $r2</title>
<path fill="none" stroke="#000000" d="M415.1263,-1223.8314C415.1263,-1216.131 415.1263,-1206.9743 415.1263,-1198.4166"/>
<polygon fill="#000000" stroke="#000000" points="418.6264,-1198.4132 415.1263,-1188.4133 411.6264,-1198.4133 418.6264,-1198.4132"/>
</g>
<!-- $r4 = new TA4 -->
<g id="node7" class="node">
<title>$r4 = new TA4</title>
<ellipse fill="none" stroke="#ff0000" cx="415.1263" cy="-1098" rx="65.7887" ry="18"/>
<text text-anchor="middle" x="415.1263" y="-1094.3" font-family="Times,serif" font-size="14.00" fill="#000000">$r4 = new TA4</text>
</g>
<!-- r3 = $r2&#45;&gt;$r4 = new TA4 -->
<g id="edge7" class="edge">
<title>r3 = $r2&#45;&gt;$r4 = new TA4</title>
<path fill="none" stroke="#000000" d="M415.1263,-1151.8314C415.1263,-1144.131 415.1263,-1134.9743 415.1263,-1126.4166"/>
<polygon fill="#000000" stroke="#000000" points="418.6264,-1126.4132 415.1263,-1116.4133 411.6264,-1126.4133 418.6264,-1126.4132"/>
</g>
<!-- specialinvoke $r4.&lt;TA4: void &lt;init&gt;()&gt;() -->
<g id="node8" class="node">
<title>specialinvoke $r4.&lt;TA4: void &lt;init&gt;()&gt;()</title>
<ellipse fill="none" stroke="#ff0000" cx="415.1263" cy="-1026" rx="159.4721" ry="18"/>
<text text-anchor="middle" x="415.1263" y="-1022.3" font-family="Times,serif" font-size="14.00" fill="#000000">specialinvoke $r4.&lt;TA4: void &lt;init&gt;()&gt;()</text>
</g>
<!-- $r4 = new TA4&#45;&gt;specialinvoke $r4.&lt;TA4: void &lt;init&gt;()&gt;() -->
<g id="edge8" class="edge">
<title>$r4 = new TA4&#45;&gt;specialinvoke $r4.&lt;TA4: void &lt;init&gt;()&gt;()</title>
<path fill="none" stroke="#000000" d="M415.1263,-1079.8314C415.1263,-1072.131 415.1263,-1062.9743 415.1263,-1054.4166"/>
<polygon fill="#000000" stroke="#000000" points="418.6264,-1054.4132 415.1263,-1044.4133 411.6264,-1054.4133 418.6264,-1054.4132"/>
</g>
<!-- r5 = $r4 -->
<g id="node9" class="node">
<title>r5 = $r4</title>
<ellipse fill="none" stroke="#ff0000" cx="415.1263" cy="-954" rx="40.0939" ry="18"/>
<text text-anchor="middle" x="415.1263" y="-950.3" font-family="Times,serif" font-size="14.00" fill="#000000">r5 = $r4</text>
</g>
<!-- specialinvoke $r4.&lt;TA4: void &lt;init&gt;()&gt;()&#45;&gt;r5 = $r4 -->
<g id="edge9" class="edge">
<title>specialinvoke $r4.&lt;TA4: void &lt;init&gt;()&gt;()&#45;&gt;r5 = $r4</title>
<path fill="none" stroke="#000000" d="M415.1263,-1007.8314C415.1263,-1000.131 415.1263,-990.9743 415.1263,-982.4166"/>
<polygon fill="#000000" stroke="#000000" points="418.6264,-982.4132 415.1263,-972.4133 411.6264,-982.4133 418.6264,-982.4132"/>
</g>
<!-- i5 = 5 -->
<g id="node18" class="node">
<title>i5 = 5</title>
<ellipse fill="none" stroke="#000000" cx="415.1263" cy="-882" rx="32.4942" ry="18"/>
<text text-anchor="middle" x="415.1263" y="-878.3" font-family="Times,serif" font-size="14.00" fill="#000000">i5 = 5</text>
</g>
<!-- r5 = $r4&#45;&gt;i5 = 5 -->
<g id="edge10" class="edge">
<title>r5 = $r4&#45;&gt;i5 = 5</title>
<path fill="none" stroke="#000000" d="M415.1263,-935.8314C415.1263,-928.131 415.1263,-918.9743 415.1263,-910.4166"/>
<polygon fill="#000000" stroke="#000000" points="418.6264,-910.4132 415.1263,-900.4133 411.6264,-910.4133 418.6264,-910.4132"/>
</g>
<!-- $r7 = new TA4 -->
<g id="node10" class="node">
<title>$r7 = new TA4</title>
<ellipse fill="none" stroke="#ff0000" cx="367.1263" cy="-450" rx="65.7887" ry="18"/>
<text text-anchor="middle" x="367.1263" y="-446.3" font-family="Times,serif" font-size="14.00" fill="#000000">$r7 = new TA4</text>
</g>
<!-- $i2 = virtualinvoke r3.&lt;TA4: int baz(TA4)&gt;(r1) -->
<g id="node11" class="node">
<title>$i2 = virtualinvoke r3.&lt;TA4: int baz(TA4)&gt;(r1)</title>
<ellipse fill="none" stroke="#ff0000" cx="234.1263" cy="-378" rx="181.9677" ry="18"/>
<text text-anchor="middle" x="234.1263" y="-374.3" font-family="Times,serif" font-size="14.00" fill="#000000">$i2 = virtualinvoke r3.&lt;TA4: int baz(TA4)&gt;(r1)</text>
</g>
<!-- $r7 = new TA4&#45;&gt;$i2 = virtualinvoke r3.&lt;TA4: int baz(TA4)&gt;(r1) -->
<g id="edge19" class="edge">
<title>$r7 = new TA4&#45;&gt;$i2 = virtualinvoke r3.&lt;TA4: int baz(TA4)&gt;(r1)</title>
<path fill="none" stroke="#000000" d="M337.2785,-433.8418C319.2134,-424.0622 295.9004,-411.4416 276.0089,-400.6733"/>
<polygon fill="#000000" stroke="#000000" points="277.6019,-397.5557 267.1415,-395.8729 274.2693,-403.7116 277.6019,-397.5557"/>
</g>
<!-- $i3 = virtualinvoke r3.&lt;TA4: int bar(int)&gt;($i2) -->
<g id="node12" class="node">
<title>$i3 = virtualinvoke r3.&lt;TA4: int bar(int)&gt;($i2)</title>
<ellipse fill="none" stroke="#ff0000" cx="310.1263" cy="-306" rx="178.1684" ry="18"/>
<text text-anchor="middle" x="310.1263" y="-302.3" font-family="Times,serif" font-size="14.00" fill="#000000">$i3 = virtualinvoke r3.&lt;TA4: int bar(int)&gt;($i2)</text>
</g>
<!-- $i2 = virtualinvoke r3.&lt;TA4: int baz(TA4)&gt;(r1)&#45;&gt;$i3 = virtualinvoke r3.&lt;TA4: int bar(int)&gt;($i2) -->
<g id="edge21" class="edge">
<title>$i2 = virtualinvoke r3.&lt;TA4: int baz(TA4)&gt;(r1)&#45;&gt;$i3 = virtualinvoke r3.&lt;TA4: int bar(int)&gt;($i2)</title>
<path fill="none" stroke="#000000" d="M253.3043,-359.8314C262.5552,-351.0673 273.7972,-340.4171 283.8321,-330.9103"/>
<polygon fill="#000000" stroke="#000000" points="286.3653,-333.3317 291.2177,-323.9134 281.551,-328.25 286.3653,-333.3317"/>
</g>
<!-- specialinvoke $r7.&lt;TA4: void &lt;init&gt;(int)&gt;($i3) -->
<g id="node13" class="node">
<title>specialinvoke $r7.&lt;TA4: void &lt;init&gt;(int)&gt;($i3)</title>
<ellipse fill="none" stroke="#ff0000" cx="348.1263" cy="-234" rx="180.0681" ry="18"/>
<text text-anchor="middle" x="348.1263" y="-230.3" font-family="Times,serif" font-size="14.00" fill="#000000">specialinvoke $r7.&lt;TA4: void &lt;init&gt;(int)&gt;($i3)</text>
</g>
<!-- $i3 = virtualinvoke r3.&lt;TA4: int bar(int)&gt;($i2)&#45;&gt;specialinvoke $r7.&lt;TA4: void &lt;init&gt;(int)&gt;($i3) -->
<g id="edge23" class="edge">
<title>$i3 = virtualinvoke r3.&lt;TA4: int bar(int)&gt;($i2)&#45;&gt;specialinvoke $r7.&lt;TA4: void &lt;init&gt;(int)&gt;($i3)</title>
<path fill="none" stroke="#000000" d="M319.7153,-287.8314C323.958,-279.7925 329.0384,-270.1666 333.7223,-261.2918"/>
<polygon fill="#000000" stroke="#000000" points="336.8359,-262.8908 338.4082,-252.4133 330.6452,-259.6235 336.8359,-262.8908"/>
</g>
<!-- virtualinvoke r5.&lt;TA4: int foo(TA4)&gt;($r7) -->
<g id="node14" class="node">
<title>virtualinvoke r5.&lt;TA4: int foo(TA4)&gt;($r7)</title>
<ellipse fill="none" stroke="#ff0000" cx="375.1263" cy="-162" rx="164.3708" ry="18"/>
<text text-anchor="middle" x="375.1263" y="-158.3" font-family="Times,serif" font-size="14.00" fill="#000000">virtualinvoke r5.&lt;TA4: int foo(TA4)&gt;($r7)</text>
</g>
<!-- specialinvoke $r7.&lt;TA4: void &lt;init&gt;(int)&gt;($i3)&#45;&gt;virtualinvoke r5.&lt;TA4: int foo(TA4)&gt;($r7) -->
<g id="edge24" class="edge">
<title>specialinvoke $r7.&lt;TA4: void &lt;init&gt;(int)&gt;($i3)&#45;&gt;virtualinvoke r5.&lt;TA4: int foo(TA4)&gt;($r7)</title>
<path fill="none" stroke="#000000" d="M354.9395,-215.8314C357.8907,-207.9617 361.4121,-198.5712 364.6813,-189.8533"/>
<polygon fill="#000000" stroke="#000000" points="367.9872,-191.0055 368.2213,-180.4133 361.4329,-188.5476 367.9872,-191.0055"/>
</g>
<!-- staticinvoke &lt;Slice: void slicingCriteria(TA4)&gt;(r5) -->
<g id="node16" class="node">
<title>staticinvoke &lt;Slice: void slicingCriteria(TA4)&gt;(r5)</title>
<ellipse fill="none" stroke="#ff0000" cx="471.1263" cy="-90" rx="192.2659" ry="18"/>
<text text-anchor="middle" x="471.1263" y="-86.3" font-family="Times,serif" font-size="14.00" fill="#000000">staticinvoke &lt;Slice: void slicingCriteria(TA4)&gt;(r5)</text>
</g>
<!-- virtualinvoke r5.&lt;TA4: int foo(TA4)&gt;($r7)&#45;&gt;staticinvoke &lt;Slice: void slicingCriteria(TA4)&gt;(r5) -->
<g id="edge25" class="edge">
<title>virtualinvoke r5.&lt;TA4: int foo(TA4)&gt;($r7)&#45;&gt;staticinvoke &lt;Slice: void slicingCriteria(TA4)&gt;(r5)</title>
<path fill="none" stroke="#000000" d="M399.3512,-143.8314C411.3802,-134.8096 426.0743,-123.789 439.027,-114.0745"/>
<polygon fill="#000000" stroke="#000000" points="441.3417,-116.7135 447.2417,-107.9134 437.1417,-111.1134 441.3417,-116.7135"/>
</g>
<!-- virtualinvoke r5.&lt;TA4: int foo(TA4)&gt;(r5) -->
<g id="node15" class="node">
<title>virtualinvoke r5.&lt;TA4: int foo(TA4)&gt;(r5)</title>
<ellipse fill="none" stroke="#ff0000" cx="594.1263" cy="-378" rx="159.7717" ry="18"/>
<text text-anchor="middle" x="594.1263" y="-374.3" font-family="Times,serif" font-size="14.00" fill="#000000">virtualinvoke r5.&lt;TA4: int foo(TA4)&gt;(r5)</text>
</g>
<!-- virtualinvoke r5.&lt;TA4: int foo(TA4)&gt;(r5)&#45;&gt;staticinvoke &lt;Slice: void slicingCriteria(TA4)&gt;(r5) -->
<g id="edge20" class="edge">
<title>virtualinvoke r5.&lt;TA4: int foo(TA4)&gt;(r5)&#45;&gt;staticinvoke &lt;Slice: void slicingCriteria(TA4)&gt;(r5)</title>
<path fill="none" stroke="#000000" d="M594.9518,-359.8984C595.98,-318.2299 593.4991,-213.7619 548.1263,-144 540.1748,-131.7743 528.3983,-121.5062 516.4339,-113.3178"/>
<polygon fill="#000000" stroke="#000000" points="518.0443,-110.1921 507.7407,-107.7248 514.2567,-116.079 518.0443,-110.1921"/>
</g>
<!-- return -->
<g id="node24" class="node">
<title>return</title>
<ellipse fill="none" stroke="#000000" cx="471.1263" cy="-18" rx="31.6951" ry="18"/>
<text text-anchor="middle" x="471.1263" y="-14.3" font-family="Times,serif" font-size="14.00" fill="#000000">return</text>
</g>
<!-- staticinvoke &lt;Slice: void slicingCriteria(TA4)&gt;(r5)&#45;&gt;return -->
<g id="edge22" class="edge">
<title>staticinvoke &lt;Slice: void slicingCriteria(TA4)&gt;(r5)&#45;&gt;return</title>
<path fill="none" stroke="#000000" d="M471.1263,-71.8314C471.1263,-64.131 471.1263,-54.9743 471.1263,-46.4166"/>
<polygon fill="#000000" stroke="#000000" points="474.6264,-46.4132 471.1263,-36.4133 467.6264,-46.4133 474.6264,-46.4132"/>
</g>
<!-- r6 := @parameter0: java.lang.String[] -->
<g id="node17" class="node">
<title>r6 := @parameter0: java.lang.String[]</title>
<ellipse fill="none" stroke="#000000" cx="415.1263" cy="-1602" rx="145.6742" ry="18"/>
<text text-anchor="middle" x="415.1263" y="-1598.3" font-family="Times,serif" font-size="14.00" fill="#000000">r6 := @parameter0: java.lang.String[]</text>
</g>
<!-- r6 := @parameter0: java.lang.String[]&#45;&gt;$r0 = new TA4 -->
<g id="edge1" class="edge">
<title>r6 := @parameter0: java.lang.String[]&#45;&gt;$r0 = new TA4</title>
<path fill="none" stroke="#000000" d="M415.1263,-1583.8314C415.1263,-1576.131 415.1263,-1566.9743 415.1263,-1558.4166"/>
<polygon fill="#000000" stroke="#000000" points="418.6264,-1558.4132 415.1263,-1548.4133 411.6264,-1558.4133 418.6264,-1558.4132"/>
</g>
<!-- $i0 = lengthof r6 -->
<g id="node19" class="node">
<title>$i0 = lengthof r6</title>
<ellipse fill="none" stroke="#000000" cx="415.1263" cy="-810" rx="71.4873" ry="18"/>
<text text-anchor="middle" x="415.1263" y="-806.3" font-family="Times,serif" font-size="14.00" fill="#000000">$i0 = lengthof r6</text>
</g>
<!-- i5 = 5&#45;&gt;$i0 = lengthof r6 -->
<g id="edge11" class="edge">
<title>i5 = 5&#45;&gt;$i0 = lengthof r6</title>
<path fill="none" stroke="#000000" d="M415.1263,-863.8314C415.1263,-856.131 415.1263,-846.9743 415.1263,-838.4166"/>
<polygon fill="#000000" stroke="#000000" points="418.6264,-838.4132 415.1263,-828.4133 411.6264,-838.4133 418.6264,-838.4132"/>
</g>
<!-- if $i0 &lt;= 0 goto (branch) -->
<g id="node20" class="node">
<title>if $i0 &lt;= 0 goto (branch)</title>
<ellipse fill="none" stroke="#000000" cx="415.1263" cy="-738" rx="100.1823" ry="18"/>
<text text-anchor="middle" x="415.1263" y="-734.3" font-family="Times,serif" font-size="14.00" fill="#000000">if $i0 &lt;= 0 goto (branch)</text>
</g>
<!-- $i0 = lengthof r6&#45;&gt;if $i0 &lt;= 0 goto (branch) -->
<g id="edge12" class="edge">
<title>$i0 = lengthof r6&#45;&gt;if $i0 &lt;= 0 goto (branch)</title>
<path fill="none" stroke="#000000" d="M415.1263,-791.8314C415.1263,-784.131 415.1263,-774.9743 415.1263,-766.4166"/>
<polygon fill="#000000" stroke="#000000" points="418.6264,-766.4132 415.1263,-756.4133 411.6264,-766.4133 418.6264,-766.4132"/>
</g>
<!-- $r8 = r6[0] -->
<g id="node21" class="node">
<title>$r8 = r6[0]</title>
<ellipse fill="none" stroke="#000000" cx="376.1263" cy="-666" rx="50.0912" ry="18"/>
<text text-anchor="middle" x="376.1263" y="-662.3" font-family="Times,serif" font-size="14.00" fill="#000000">$r8 = r6[0]</text>
</g>
<!-- if $i0 &lt;= 0 goto (branch)&#45;&gt;$r8 = r6[0] -->
<g id="edge13" class="edge">
<title>if $i0 &lt;= 0 goto (branch)&#45;&gt;$r8 = r6[0]</title>
<path fill="none" stroke="#000000" d="M405.285,-719.8314C400.8636,-711.6688 395.5559,-701.87 390.6878,-692.8827"/>
<polygon fill="#000000" stroke="#000000" points="393.6698,-691.0393 385.8294,-683.9134 387.5148,-694.3734 393.6698,-691.0393"/>
</g>
<!-- if i5 &lt;= 5 goto virtualinvoke r5.&lt;TA4: int foo(TA4)&gt;(r5) -->
<g id="node22" class="node">
<title>if i5 &lt;= 5 goto virtualinvoke r5.&lt;TA4: int foo(TA4)&gt;(r5)</title>
<ellipse fill="none" stroke="#000000" cx="414.1263" cy="-522" rx="215.2619" ry="18"/>
<text text-anchor="middle" x="414.1263" y="-518.3" font-family="Times,serif" font-size="14.00" fill="#000000">if i5 &lt;= 5 goto virtualinvoke r5.&lt;TA4: int foo(TA4)&gt;(r5)</text>
</g>
<!-- if $i0 &lt;= 0 goto (branch)&#45;&gt;if i5 &lt;= 5 goto virtualinvoke r5.&lt;TA4: int foo(TA4)&gt;(r5) -->
<g id="edge14" class="edge">
<title>if $i0 &lt;= 0 goto (branch)&#45;&gt;if i5 &lt;= 5 goto virtualinvoke r5.&lt;TA4: int foo(TA4)&gt;(r5)</title>
<path fill="none" stroke="#000000" d="M446.8885,-720.7365C495.7558,-691.8726 580.063,-631.5042 543.1263,-576 533.4564,-561.4692 519.0445,-550.8411 503.3164,-543.0696"/>
<polygon fill="#000000" stroke="#000000" points="504.4828,-539.7556 493.9297,-538.816 501.5935,-546.1315 504.4828,-539.7556"/>
</g>
<!-- i5 = staticinvoke &lt;java.lang.Integer: int parseInt(java.lang.String)&gt;($r8) -->
<g id="node23" class="node">
<title>i5 = staticinvoke &lt;java.lang.Integer: int parseInt(java.lang.String)&gt;($r8)</title>
<ellipse fill="none" stroke="#000000" cx="267.1263" cy="-594" rx="267.2527" ry="18"/>
<text text-anchor="middle" x="267.1263" y="-590.3" font-family="Times,serif" font-size="14.00" fill="#000000">i5 = staticinvoke &lt;java.lang.Integer: int parseInt(java.lang.String)&gt;($r8)</text>
</g>
<!-- $r8 = r6[0]&#45;&gt;i5 = staticinvoke &lt;java.lang.Integer: int parseInt(java.lang.String)&gt;($r8) -->
<g id="edge15" class="edge">
<title>$r8 = r6[0]&#45;&gt;i5 = staticinvoke &lt;java.lang.Integer: int parseInt(java.lang.String)&gt;($r8)</title>
<path fill="none" stroke="#000000" d="M351.9357,-650.0209C337.5416,-640.5128 319.0116,-628.2728 302.9455,-617.6604"/>
<polygon fill="#000000" stroke="#000000" points="304.5884,-614.551 294.3153,-611.9597 300.7303,-620.3918 304.5884,-614.551"/>
</g>
<!-- if i5 &lt;= 5 goto virtualinvoke r5.&lt;TA4: int foo(TA4)&gt;(r5)&#45;&gt;$r7 = new TA4 -->
<g id="edge16" class="edge">
<title>if i5 &lt;= 5 goto virtualinvoke r5.&lt;TA4: int foo(TA4)&gt;(r5)&#45;&gt;$r7 = new TA4</title>
<path fill="none" stroke="#000000" d="M402.2662,-503.8314C396.8257,-495.497 390.2716,-485.4567 384.3049,-476.3162"/>
<polygon fill="#000000" stroke="#000000" points="387.2169,-474.374 378.8198,-467.9134 381.3552,-478.2004 387.2169,-474.374"/>
</g>
<!-- if i5 &lt;= 5 goto virtualinvoke r5.&lt;TA4: int foo(TA4)&gt;(r5)&#45;&gt;virtualinvoke r5.&lt;TA4: int foo(TA4)&gt;(r5) -->
<g id="edge17" class="edge">
<title>if i5 &lt;= 5 goto virtualinvoke r5.&lt;TA4: int foo(TA4)&gt;(r5)&#45;&gt;virtualinvoke r5.&lt;TA4: int foo(TA4)&gt;(r5)</title>
<path fill="none" stroke="#000000" d="M436.5595,-504.0535C468.5795,-478.4375 527.489,-431.3098 563.5001,-402.501"/>
<polygon fill="#000000" stroke="#000000" points="566.0716,-404.926 571.6938,-395.946 561.6987,-399.4599 566.0716,-404.926"/>
</g>
<!-- i5 = staticinvoke &lt;java.lang.Integer: int parseInt(java.lang.String)&gt;($r8)&#45;&gt;if i5 &lt;= 5 goto virtualinvoke r5.&lt;TA4: int foo(TA4)&gt;(r5) -->
<g id="edge18" class="edge">
<title>i5 = staticinvoke &lt;java.lang.Integer: int parseInt(java.lang.String)&gt;($r8)&#45;&gt;if i5 &lt;= 5 goto virtualinvoke r5.&lt;TA4: int foo(TA4)&gt;(r5)</title>
<path fill="none" stroke="#000000" d="M303.8414,-576.0171C323.5461,-566.3658 348.0032,-554.3868 368.8755,-544.1637"/>
<polygon fill="#000000" stroke="#000000" points="370.438,-547.2957 377.8791,-539.7537 367.3589,-541.0092 370.438,-547.2957"/>
</g>
</g>
</svg>
