<?xml version="1.0" encoding="UTF-8" standalone="no"?>
<!DOCTYPE svg PUBLIC "-//W3C//DTD SVG 1.1//EN"
 "http://www.w3.org/Graphics/SVG/1.1/DTD/svg11.dtd">
<!-- Generated by graphviz version 2.40.1 (20161225.0304)
 -->
<!-- Title: G Pages: 1 -->
<svg width="705pt" height="1556pt"
 viewBox="0.00 0.00 705.13 1556.00" xmlns="http://www.w3.org/2000/svg" xmlns:xlink="http://www.w3.org/1999/xlink">
<g id="graph0" class="graph" transform="scale(1 1) rotate(0) translate(4 1552)">
<title>G</title>
<polygon fill="#ffffff" stroke="transparent" points="-4,4 -4,-1552 701.1263,-1552 701.1263,4 -4,4"/>
<!-- $r0 = new TA5 -->
<g id="node1" class="node">
<title>$r0 = new TA5</title>
<ellipse fill="none" stroke="#ff0000" cx="313.3339" cy="-1314" rx="65.7887" ry="18"/>
<text text-anchor="middle" x="313.3339" y="-1310.3" font-family="Times,serif" font-size="14.00" fill="#000000">$r0 = new TA5</text>
</g>
<!-- specialinvoke $r0.&lt;TA5: void &lt;init&gt;()&gt;() -->
<g id="node2" class="node">
<title>specialinvoke $r0.&lt;TA5: void &lt;init&gt;()&gt;()</title>
<ellipse fill="none" stroke="#ff0000" cx="313.3339" cy="-1242" rx="159.4721" ry="18"/>
<text text-anchor="middle" x="313.3339" y="-1238.3" font-family="Times,serif" font-size="14.00" fill="#000000">specialinvoke $r0.&lt;TA5: void &lt;init&gt;()&gt;()</text>
</g>
<!-- $r0 = new TA5&#45;&gt;specialinvoke $r0.&lt;TA5: void &lt;init&gt;()&gt;() -->
<g id="edge4" class="edge">
<title>$r0 = new TA5&#45;&gt;specialinvoke $r0.&lt;TA5: void &lt;init&gt;()&gt;()</title>
<path fill="none" stroke="#000000" d="M313.3339,-1295.8314C313.3339,-1288.131 313.3339,-1278.9743 313.3339,-1270.4166"/>
<polygon fill="#000000" stroke="#000000" points="316.834,-1270.4132 313.3339,-1260.4133 309.834,-1270.4133 316.834,-1270.4132"/>
</g>
<!-- r1 = $r0 -->
<g id="node3" class="node">
<title>r1 = $r0</title>
<ellipse fill="none" stroke="#ff0000" cx="313.3339" cy="-1170" rx="40.0939" ry="18"/>
<text text-anchor="middle" x="313.3339" y="-1166.3" font-family="Times,serif" font-size="14.00" fill="#000000">r1 = $r0</text>
</g>
<!-- specialinvoke $r0.&lt;TA5: void &lt;init&gt;()&gt;()&#45;&gt;r1 = $r0 -->
<g id="edge5" class="edge">
<title>specialinvoke $r0.&lt;TA5: void &lt;init&gt;()&gt;()&#45;&gt;r1 = $r0</title>
<path fill="none" stroke="#000000" d="M313.3339,-1223.8314C313.3339,-1216.131 313.3339,-1206.9743 313.3339,-1198.4166"/>
<polygon fill="#000000" stroke="#000000" points="316.834,-1198.4132 313.3339,-1188.4133 309.834,-1198.4133 316.834,-1198.4132"/>
</g>
<!-- $r2 = new TA5 -->
<g id="node21" class="node">
<title>$r2 = new TA5</title>
<ellipse fill="none" stroke="#000000" cx="313.3339" cy="-1098" rx="65.7887" ry="18"/>
<text text-anchor="middle" x="313.3339" y="-1094.3" font-family="Times,serif" font-size="14.00" fill="#000000">$r2 = new TA5</text>
</g>
<!-- r1 = $r0&#45;&gt;$r2 = new TA5 -->
<g id="edge6" class="edge">
<title>r1 = $r0&#45;&gt;$r2 = new TA5</title>
<path fill="none" stroke="#000000" d="M313.3339,-1151.8314C313.3339,-1144.131 313.3339,-1134.9743 313.3339,-1126.4166"/>
<polygon fill="#000000" stroke="#000000" points="316.834,-1126.4132 313.3339,-1116.4133 309.834,-1126.4133 316.834,-1126.4132"/>
</g>
<!-- $r3 = new TA5 -->
<g id="node4" class="node">
<title>$r3 = new TA5</title>
<ellipse fill="none" stroke="#ff0000" cx="313.3339" cy="-882" rx="65.7887" ry="18"/>
<text text-anchor="middle" x="313.3339" y="-878.3" font-family="Times,serif" font-size="14.00" fill="#000000">$r3 = new TA5</text>
</g>
<!-- specialinvoke $r3.&lt;TA5: void &lt;init&gt;()&gt;() -->
<g id="node5" class="node">
<title>specialinvoke $r3.&lt;TA5: void &lt;init&gt;()&gt;()</title>
<ellipse fill="none" stroke="#ff0000" cx="313.3339" cy="-810" rx="159.4721" ry="18"/>
<text text-anchor="middle" x="313.3339" y="-806.3" font-family="Times,serif" font-size="14.00" fill="#000000">specialinvoke $r3.&lt;TA5: void &lt;init&gt;()&gt;()</text>
</g>
<!-- $r3 = new TA5&#45;&gt;specialinvoke $r3.&lt;TA5: void &lt;init&gt;()&gt;() -->
<g id="edge10" class="edge">
<title>$r3 = new TA5&#45;&gt;specialinvoke $r3.&lt;TA5: void &lt;init&gt;()&gt;()</title>
<path fill="none" stroke="#000000" d="M313.3339,-863.8314C313.3339,-856.131 313.3339,-846.9743 313.3339,-838.4166"/>
<polygon fill="#000000" stroke="#000000" points="316.834,-838.4132 313.3339,-828.4133 309.834,-838.4133 316.834,-838.4132"/>
</g>
<!-- r7 = $r3 -->
<g id="node6" class="node">
<title>r7 = $r3</title>
<ellipse fill="none" stroke="#ff0000" cx="313.3339" cy="-738" rx="40.0939" ry="18"/>
<text text-anchor="middle" x="313.3339" y="-734.3" font-family="Times,serif" font-size="14.00" fill="#000000">r7 = $r3</text>
</g>
<!-- specialinvoke $r3.&lt;TA5: void &lt;init&gt;()&gt;()&#45;&gt;r7 = $r3 -->
<g id="edge11" class="edge">
<title>specialinvoke $r3.&lt;TA5: void &lt;init&gt;()&gt;()&#45;&gt;r7 = $r3</title>
<path fill="none" stroke="#000000" d="M313.3339,-791.8314C313.3339,-784.131 313.3339,-774.9743 313.3339,-766.4166"/>
<polygon fill="#000000" stroke="#000000" points="316.834,-766.4132 313.3339,-756.4133 309.834,-766.4133 316.834,-766.4132"/>
</g>
<!-- r8 = r7 -->
<g id="node7" class="node">
<title>r8 = r7</title>
<ellipse fill="none" stroke="#ff0000" cx="313.3339" cy="-666" rx="35.9954" ry="18"/>
<text text-anchor="middle" x="313.3339" y="-662.3" font-family="Times,serif" font-size="14.00" fill="#000000">r8 = r7</text>
</g>
<!-- r7 = $r3&#45;&gt;r8 = r7 -->
<g id="edge12" class="edge">
<title>r7 = $r3&#45;&gt;r8 = r7</title>
<path fill="none" stroke="#000000" d="M313.3339,-719.8314C313.3339,-712.131 313.3339,-702.9743 313.3339,-694.4166"/>
<polygon fill="#000000" stroke="#000000" points="316.834,-694.4132 313.3339,-684.4133 309.834,-694.4133 316.834,-694.4132"/>
</g>
<!-- r7.&lt;TA5: TA5 fo&gt; = r7 -->
<g id="node8" class="node">
<title>r7.&lt;TA5: TA5 fo&gt; = r7</title>
<ellipse fill="none" stroke="#ff0000" cx="313.3339" cy="-594" rx="95.5831" ry="18"/>
<text text-anchor="middle" x="313.3339" y="-590.3" font-family="Times,serif" font-size="14.00" fill="#000000">r7.&lt;TA5: TA5 fo&gt; = r7</text>
</g>
<!-- r8 = r7&#45;&gt;r7.&lt;TA5: TA5 fo&gt; = r7 -->
<g id="edge13" class="edge">
<title>r8 = r7&#45;&gt;r7.&lt;TA5: TA5 fo&gt; = r7</title>
<path fill="none" stroke="#000000" d="M313.3339,-647.8314C313.3339,-640.131 313.3339,-630.9743 313.3339,-622.4166"/>
<polygon fill="#000000" stroke="#000000" points="316.834,-622.4132 313.3339,-612.4133 309.834,-622.4133 316.834,-622.4132"/>
</g>
<!-- if b0 &lt;= 4 goto r7.&lt;TA5: int f&gt; = 12 -->
<g id="node24" class="node">
<title>if b0 &lt;= 4 goto r7.&lt;TA5: int f&gt; = 12</title>
<ellipse fill="none" stroke="#000000" cx="313.3339" cy="-522" rx="142.9746" ry="18"/>
<text text-anchor="middle" x="313.3339" y="-518.3" font-family="Times,serif" font-size="14.00" fill="#000000">if b0 &lt;= 4 goto r7.&lt;TA5: int f&gt; = 12</text>
</g>
<!-- r7.&lt;TA5: TA5 fo&gt; = r7&#45;&gt;if b0 &lt;= 4 goto r7.&lt;TA5: int f&gt; = 12 -->
<g id="edge14" class="edge">
<title>r7.&lt;TA5: TA5 fo&gt; = r7&#45;&gt;if b0 &lt;= 4 goto r7.&lt;TA5: int f&gt; = 12</title>
<path fill="none" stroke="#000000" d="M313.3339,-575.8314C313.3339,-568.131 313.3339,-558.9743 313.3339,-550.4166"/>
<polygon fill="#000000" stroke="#000000" points="316.834,-550.4132 313.3339,-540.4133 309.834,-550.4133 316.834,-550.4132"/>
</g>
<!-- $r4 = new TA5 -->
<g id="node9" class="node">
<title>$r4 = new TA5</title>
<ellipse fill="none" stroke="#ff0000" cx="446.3339" cy="-378" rx="65.7887" ry="18"/>
<text text-anchor="middle" x="446.3339" y="-374.3" font-family="Times,serif" font-size="14.00" fill="#000000">$r4 = new TA5</text>
</g>
<!-- specialinvoke $r4.&lt;TA5: void &lt;init&gt;()&gt;() -->
<g id="node10" class="node">
<title>specialinvoke $r4.&lt;TA5: void &lt;init&gt;()&gt;()</title>
<ellipse fill="none" stroke="#ff0000" cx="446.3339" cy="-306" rx="159.4721" ry="18"/>
<text text-anchor="middle" x="446.3339" y="-302.3" font-family="Times,serif" font-size="14.00" fill="#000000">specialinvoke $r4.&lt;TA5: void &lt;init&gt;()&gt;()</text>
</g>
<!-- $r4 = new TA5&#45;&gt;specialinvoke $r4.&lt;TA5: void &lt;init&gt;()&gt;() -->
<g id="edge20" class="edge">
<title>$r4 = new TA5&#45;&gt;specialinvoke $r4.&lt;TA5: void &lt;init&gt;()&gt;()</title>
<path fill="none" stroke="#000000" d="M446.3339,-359.8314C446.3339,-352.131 446.3339,-342.9743 446.3339,-334.4166"/>
<polygon fill="#000000" stroke="#000000" points="449.834,-334.4132 446.3339,-324.4133 442.834,-334.4133 449.834,-334.4132"/>
</g>
<!-- r7 = $r4 -->
<g id="node11" class="node">
<title>r7 = $r4</title>
<ellipse fill="none" stroke="#ff0000" cx="446.3339" cy="-234" rx="40.0939" ry="18"/>
<text text-anchor="middle" x="446.3339" y="-230.3" font-family="Times,serif" font-size="14.00" fill="#000000">r7 = $r4</text>
</g>
<!-- specialinvoke $r4.&lt;TA5: void &lt;init&gt;()&gt;()&#45;&gt;r7 = $r4 -->
<g id="edge23" class="edge">
<title>specialinvoke $r4.&lt;TA5: void &lt;init&gt;()&gt;()&#45;&gt;r7 = $r4</title>
<path fill="none" stroke="#000000" d="M446.3339,-287.8314C446.3339,-280.131 446.3339,-270.9743 446.3339,-262.4166"/>
<polygon fill="#000000" stroke="#000000" points="449.834,-262.4132 446.3339,-252.4133 442.834,-262.4133 449.834,-262.4132"/>
</g>
<!-- r7.&lt;TA5: TA5 fo&gt; = r1 -->
<g id="node12" class="node">
<title>r7.&lt;TA5: TA5 fo&gt; = r1</title>
<ellipse fill="none" stroke="#ff0000" cx="446.3339" cy="-162" rx="95.5831" ry="18"/>
<text text-anchor="middle" x="446.3339" y="-158.3" font-family="Times,serif" font-size="14.00" fill="#000000">r7.&lt;TA5: TA5 fo&gt; = r1</text>
</g>
<!-- r7 = $r4&#45;&gt;r7.&lt;TA5: TA5 fo&gt; = r1 -->
<g id="edge26" class="edge">
<title>r7 = $r4&#45;&gt;r7.&lt;TA5: TA5 fo&gt; = r1</title>
<path fill="none" stroke="#000000" d="M446.3339,-215.8314C446.3339,-208.131 446.3339,-198.9743 446.3339,-190.4166"/>
<polygon fill="#000000" stroke="#000000" points="449.834,-190.4132 446.3339,-180.4133 442.834,-190.4133 449.834,-190.4132"/>
</g>
<!-- staticinvoke &lt;Slice: void slicingCriteria(TA5)&gt;(r7) -->
<g id="node17" class="node">
<title>staticinvoke &lt;Slice: void slicingCriteria(TA5)&gt;(r7)</title>
<ellipse fill="none" stroke="#ff0000" cx="446.3339" cy="-90" rx="192.2659" ry="18"/>
<text text-anchor="middle" x="446.3339" y="-86.3" font-family="Times,serif" font-size="14.00" fill="#000000">staticinvoke &lt;Slice: void slicingCriteria(TA5)&gt;(r7)</text>
</g>
<!-- r7.&lt;TA5: TA5 fo&gt; = r1&#45;&gt;staticinvoke &lt;Slice: void slicingCriteria(TA5)&gt;(r7) -->
<g id="edge28" class="edge">
<title>r7.&lt;TA5: TA5 fo&gt; = r1&#45;&gt;staticinvoke &lt;Slice: void slicingCriteria(TA5)&gt;(r7)</title>
<path fill="none" stroke="#000000" d="M446.3339,-143.8314C446.3339,-136.131 446.3339,-126.9743 446.3339,-118.4166"/>
<polygon fill="#000000" stroke="#000000" points="449.834,-118.4132 446.3339,-108.4133 442.834,-118.4133 449.834,-118.4132"/>
</g>
<!-- r7 = r8 -->
<g id="node13" class="node">
<title>r7 = r8</title>
<ellipse fill="none" stroke="#ff0000" cx="599.3339" cy="-378" rx="35.9954" ry="18"/>
<text text-anchor="middle" x="599.3339" y="-374.3" font-family="Times,serif" font-size="14.00" fill="#000000">r7 = r8</text>
</g>
<!-- r8.&lt;TA5: int f&gt; = 10 -->
<g id="node26" class="node">
<title>r8.&lt;TA5: int f&gt; = 10</title>
<ellipse fill="none" stroke="#000000" cx="611.3339" cy="-234" rx="85.5853" ry="18"/>
<text text-anchor="middle" x="611.3339" y="-230.3" font-family="Times,serif" font-size="14.00" fill="#000000">r8.&lt;TA5: int f&gt; = 10</text>
</g>
<!-- r7 = r8&#45;&gt;r8.&lt;TA5: int f&gt; = 10 -->
<g id="edge21" class="edge">
<title>r7 = r8&#45;&gt;r8.&lt;TA5: int f&gt; = 10</title>
<path fill="none" stroke="#000000" d="M605.5724,-360.2552C608.9018,-349.8402 612.6518,-336.3402 614.3339,-324 617.1448,-303.3784 616.221,-279.8662 614.6866,-262.0463"/>
<polygon fill="#000000" stroke="#000000" points="618.163,-261.6333 613.7084,-252.0205 611.1961,-262.3132 618.163,-261.6333"/>
</g>
<!-- r7.&lt;TA5: int f&gt; = 12 -->
<g id="node14" class="node">
<title>r7.&lt;TA5: int f&gt; = 12</title>
<ellipse fill="none" stroke="#ff0000" cx="215.3339" cy="-450" rx="85.5853" ry="18"/>
<text text-anchor="middle" x="215.3339" y="-446.3" font-family="Times,serif" font-size="14.00" fill="#000000">r7.&lt;TA5: int f&gt; = 12</text>
</g>
<!-- $i2 = virtualinvoke r8.&lt;TA5: int foo(TA5)&gt;(r8) -->
<g id="node15" class="node">
<title>$i2 = virtualinvoke r8.&lt;TA5: int foo(TA5)&gt;(r8)</title>
<ellipse fill="none" stroke="#ff0000" cx="181.3339" cy="-378" rx="181.168" ry="18"/>
<text text-anchor="middle" x="181.3339" y="-374.3" font-family="Times,serif" font-size="14.00" fill="#000000">$i2 = virtualinvoke r8.&lt;TA5: int foo(TA5)&gt;(r8)</text>
</g>
<!-- r7.&lt;TA5: int f&gt; = 12&#45;&gt;$i2 = virtualinvoke r8.&lt;TA5: int foo(TA5)&gt;(r8) -->
<g id="edge19" class="edge">
<title>r7.&lt;TA5: int f&gt; = 12&#45;&gt;$i2 = virtualinvoke r8.&lt;TA5: int foo(TA5)&gt;(r8)</title>
<path fill="none" stroke="#000000" d="M206.7543,-431.8314C202.9981,-423.8771 198.5082,-414.369 194.3542,-405.5723"/>
<polygon fill="#000000" stroke="#000000" points="197.4641,-403.9612 190.0291,-396.4133 191.1343,-406.9503 197.4641,-403.9612"/>
</g>
<!-- r7.&lt;TA5: int f&gt; = $i2 -->
<g id="node16" class="node">
<title>r7.&lt;TA5: int f&gt; = $i2</title>
<ellipse fill="none" stroke="#ff0000" cx="180.3339" cy="-306" rx="88.2844" ry="18"/>
<text text-anchor="middle" x="180.3339" y="-302.3" font-family="Times,serif" font-size="14.00" fill="#000000">r7.&lt;TA5: int f&gt; = $i2</text>
</g>
<!-- $i2 = virtualinvoke r8.&lt;TA5: int foo(TA5)&gt;(r8)&#45;&gt;r7.&lt;TA5: int f&gt; = $i2 -->
<g id="edge22" class="edge">
<title>$i2 = virtualinvoke r8.&lt;TA5: int foo(TA5)&gt;(r8)&#45;&gt;r7.&lt;TA5: int f&gt; = $i2</title>
<path fill="none" stroke="#000000" d="M181.0816,-359.8314C180.9746,-352.131 180.8474,-342.9743 180.7286,-334.4166"/>
<polygon fill="#000000" stroke="#000000" points="184.2283,-334.3637 180.5896,-324.4133 177.229,-334.4609 184.2283,-334.3637"/>
</g>
<!-- r1.&lt;TA5: TA5 fo&gt; = r7 -->
<g id="node27" class="node">
<title>r1.&lt;TA5: TA5 fo&gt; = r7</title>
<ellipse fill="none" stroke="#000000" cx="223.3339" cy="-162" rx="95.5831" ry="18"/>
<text text-anchor="middle" x="223.3339" y="-158.3" font-family="Times,serif" font-size="14.00" fill="#000000">r1.&lt;TA5: TA5 fo&gt; = r7</text>
</g>
<!-- r7.&lt;TA5: int f&gt; = $i2&#45;&gt;r1.&lt;TA5: TA5 fo&gt; = r7 -->
<g id="edge25" class="edge">
<title>r7.&lt;TA5: int f&gt; = $i2&#45;&gt;r1.&lt;TA5: TA5 fo&gt; = r7</title>
<path fill="none" stroke="#000000" d="M185.7799,-287.7623C193.1465,-263.0928 206.355,-218.8598 214.9808,-189.9731"/>
<polygon fill="#000000" stroke="#000000" points="218.4245,-190.673 217.9321,-180.0896 211.7171,-188.6701 218.4245,-190.673"/>
</g>
<!-- return -->
<g id="node28" class="node">
<title>return</title>
<ellipse fill="none" stroke="#000000" cx="446.3339" cy="-18" rx="31.6951" ry="18"/>
<text text-anchor="middle" x="446.3339" y="-14.3" font-family="Times,serif" font-size="14.00" fill="#000000">return</text>
</g>
<!-- staticinvoke &lt;Slice: void slicingCriteria(TA5)&gt;(r7)&#45;&gt;return -->
<g id="edge29" class="edge">
<title>staticinvoke &lt;Slice: void slicingCriteria(TA5)&gt;(r7)&#45;&gt;return</title>
<path fill="none" stroke="#000000" d="M446.3339,-71.8314C446.3339,-64.131 446.3339,-54.9743 446.3339,-46.4166"/>
<polygon fill="#000000" stroke="#000000" points="449.834,-46.4132 446.3339,-36.4133 442.834,-46.4133 449.834,-46.4132"/>
</g>
<!-- r5 := @parameter0: java.lang.String[] -->
<g id="node18" class="node">
<title>r5 := @parameter0: java.lang.String[]</title>
<ellipse fill="none" stroke="#000000" cx="313.3339" cy="-1530" rx="145.6742" ry="18"/>
<text text-anchor="middle" x="313.3339" y="-1526.3" font-family="Times,serif" font-size="14.00" fill="#000000">r5 := @parameter0: java.lang.String[]</text>
</g>
<!-- b0 = 1 -->
<g id="node19" class="node">
<title>b0 = 1</title>
<ellipse fill="none" stroke="#000000" cx="313.3339" cy="-1458" rx="34.394" ry="18"/>
<text text-anchor="middle" x="313.3339" y="-1454.3" font-family="Times,serif" font-size="14.00" fill="#000000">b0 = 1</text>
</g>
<!-- r5 := @parameter0: java.lang.String[]&#45;&gt;b0 = 1 -->
<g id="edge1" class="edge">
<title>r5 := @parameter0: java.lang.String[]&#45;&gt;b0 = 1</title>
<path fill="none" stroke="#000000" d="M313.3339,-1511.8314C313.3339,-1504.131 313.3339,-1494.9743 313.3339,-1486.4166"/>
<polygon fill="#000000" stroke="#000000" points="316.834,-1486.4132 313.3339,-1476.4133 309.834,-1486.4133 316.834,-1486.4132"/>
</g>
<!-- b1 = 2 -->
<g id="node20" class="node">
<title>b1 = 2</title>
<ellipse fill="none" stroke="#000000" cx="313.3339" cy="-1386" rx="34.394" ry="18"/>
<text text-anchor="middle" x="313.3339" y="-1382.3" font-family="Times,serif" font-size="14.00" fill="#000000">b1 = 2</text>
</g>
<!-- b0 = 1&#45;&gt;b1 = 2 -->
<g id="edge2" class="edge">
<title>b0 = 1&#45;&gt;b1 = 2</title>
<path fill="none" stroke="#000000" d="M313.3339,-1439.8314C313.3339,-1432.131 313.3339,-1422.9743 313.3339,-1414.4166"/>
<polygon fill="#000000" stroke="#000000" points="316.834,-1414.4132 313.3339,-1404.4133 309.834,-1414.4133 316.834,-1414.4132"/>
</g>
<!-- b1 = 2&#45;&gt;$r0 = new TA5 -->
<g id="edge3" class="edge">
<title>b1 = 2&#45;&gt;$r0 = new TA5</title>
<path fill="none" stroke="#000000" d="M313.3339,-1367.8314C313.3339,-1360.131 313.3339,-1350.9743 313.3339,-1342.4166"/>
<polygon fill="#000000" stroke="#000000" points="316.834,-1342.4132 313.3339,-1332.4133 309.834,-1342.4133 316.834,-1342.4132"/>
</g>
<!-- specialinvoke $r2.&lt;TA5: void &lt;init&gt;()&gt;() -->
<g id="node22" class="node">
<title>specialinvoke $r2.&lt;TA5: void &lt;init&gt;()&gt;()</title>
<ellipse fill="none" stroke="#000000" cx="313.3339" cy="-1026" rx="159.4721" ry="18"/>
<text text-anchor="middle" x="313.3339" y="-1022.3" font-family="Times,serif" font-size="14.00" fill="#000000">specialinvoke $r2.&lt;TA5: void &lt;init&gt;()&gt;()</text>
</g>
<!-- $r2 = new TA5&#45;&gt;specialinvoke $r2.&lt;TA5: void &lt;init&gt;()&gt;() -->
<g id="edge7" class="edge">
<title>$r2 = new TA5&#45;&gt;specialinvoke $r2.&lt;TA5: void &lt;init&gt;()&gt;()</title>
<path fill="none" stroke="#000000" d="M313.3339,-1079.8314C313.3339,-1072.131 313.3339,-1062.9743 313.3339,-1054.4166"/>
<polygon fill="#000000" stroke="#000000" points="316.834,-1054.4132 313.3339,-1044.4133 309.834,-1054.4133 316.834,-1054.4132"/>
</g>
<!-- r6 = $r2 -->
<g id="node23" class="node">
<title>r6 = $r2</title>
<ellipse fill="none" stroke="#000000" cx="313.3339" cy="-954" rx="40.0939" ry="18"/>
<text text-anchor="middle" x="313.3339" y="-950.3" font-family="Times,serif" font-size="14.00" fill="#000000">r6 = $r2</text>
</g>
<!-- specialinvoke $r2.&lt;TA5: void &lt;init&gt;()&gt;()&#45;&gt;r6 = $r2 -->
<g id="edge8" class="edge">
<title>specialinvoke $r2.&lt;TA5: void &lt;init&gt;()&gt;()&#45;&gt;r6 = $r2</title>
<path fill="none" stroke="#000000" d="M313.3339,-1007.8314C313.3339,-1000.131 313.3339,-990.9743 313.3339,-982.4166"/>
<polygon fill="#000000" stroke="#000000" points="316.834,-982.4132 313.3339,-972.4133 309.834,-982.4133 316.834,-982.4132"/>
</g>
<!-- r6 = $r2&#45;&gt;$r3 = new TA5 -->
<g id="edge9" class="edge">
<title>r6 = $r2&#45;&gt;$r3 = new TA5</title>
<path fill="none" stroke="#000000" d="M313.3339,-935.8314C313.3339,-928.131 313.3339,-918.9743 313.3339,-910.4166"/>
<polygon fill="#000000" stroke="#000000" points="316.834,-910.4132 313.3339,-900.4133 309.834,-910.4133 316.834,-910.4132"/>
</g>
<!-- if b0 &lt;= 4 goto r7.&lt;TA5: int f&gt; = 12&#45;&gt;r7.&lt;TA5: int f&gt; = 12 -->
<g id="edge16" class="edge">
<title>if b0 &lt;= 4 goto r7.&lt;TA5: int f&gt; = 12&#45;&gt;r7.&lt;TA5: int f&gt; = 12</title>
<path fill="none" stroke="#000000" d="M289.1092,-504.2022C276.4357,-494.8911 260.7615,-483.3754 247.1245,-473.3564"/>
<polygon fill="#000000" stroke="#000000" points="249.0729,-470.4448 238.9418,-467.3446 244.9284,-476.086 249.0729,-470.4448"/>
</g>
<!-- if b1 &gt;= 3 goto r7 = r8 -->
<g id="node25" class="node">
<title>if b1 &gt;= 3 goto r7 = r8</title>
<ellipse fill="none" stroke="#000000" cx="446.3339" cy="-450" rx="92.8835" ry="18"/>
<text text-anchor="middle" x="446.3339" y="-446.3" font-family="Times,serif" font-size="14.00" fill="#000000">if b1 &gt;= 3 goto r7 = r8</text>
</g>
<!-- if b0 &lt;= 4 goto r7.&lt;TA5: int f&gt; = 12&#45;&gt;if b1 &gt;= 3 goto r7 = r8 -->
<g id="edge15" class="edge">
<title>if b0 &lt;= 4 goto r7.&lt;TA5: int f&gt; = 12&#45;&gt;if b1 &gt;= 3 goto r7 = r8</title>
<path fill="none" stroke="#000000" d="M345.8694,-504.3868C363.9272,-494.6111 386.5525,-482.3629 405.7577,-471.9661"/>
<polygon fill="#000000" stroke="#000000" points="407.4655,-475.0216 414.5933,-467.1829 404.1329,-468.8657 407.4655,-475.0216"/>
</g>
<!-- if b1 &gt;= 3 goto r7 = r8&#45;&gt;$r4 = new TA5 -->
<g id="edge17" class="edge">
<title>if b1 &gt;= 3 goto r7 = r8&#45;&gt;$r4 = new TA5</title>
<path fill="none" stroke="#000000" d="M446.3339,-431.8314C446.3339,-424.131 446.3339,-414.9743 446.3339,-406.4166"/>
<polygon fill="#000000" stroke="#000000" points="449.834,-406.4132 446.3339,-396.4133 442.834,-406.4133 449.834,-406.4132"/>
</g>
<!-- if b1 &gt;= 3 goto r7 = r8&#45;&gt;r7 = r8 -->
<g id="edge18" class="edge">
<title>if b1 &gt;= 3 goto r7 = r8&#45;&gt;r7 = r8</title>
<path fill="none" stroke="#000000" d="M481.8197,-433.3008C506.4462,-421.7118 539.1235,-406.3343 563.7675,-394.7371"/>
<polygon fill="#000000" stroke="#000000" points="565.5614,-397.7612 573.1192,-390.3363 562.5807,-391.4275 565.5614,-397.7612"/>
</g>
<!-- r8.&lt;TA5: int f&gt; = 10&#45;&gt;staticinvoke &lt;Slice: void slicingCriteria(TA5)&gt;(r7) -->
<g id="edge24" class="edge">
<title>r8.&lt;TA5: int f&gt; = 10&#45;&gt;staticinvoke &lt;Slice: void slicingCriteria(TA5)&gt;(r7)</title>
<path fill="none" stroke="#000000" d="M602.7406,-215.7915C592.6904,-196.06 574.446,-164.6377 551.3339,-144 536.8848,-131.0978 518.7954,-120.3627 501.7222,-111.953"/>
<polygon fill="#000000" stroke="#000000" points="502.9066,-108.6412 492.3712,-107.5212 499.9087,-114.9668 502.9066,-108.6412"/>
</g>
<!-- r1.&lt;TA5: TA5 fo&gt; = r7&#45;&gt;staticinvoke &lt;Slice: void slicingCriteria(TA5)&gt;(r7) -->
<g id="edge27" class="edge">
<title>r1.&lt;TA5: TA5 fo&gt; = r7&#45;&gt;staticinvoke &lt;Slice: void slicingCriteria(TA5)&gt;(r7)</title>
<path fill="none" stroke="#000000" d="M271.7216,-146.3771C304.2724,-135.8674 347.5235,-121.9029 382.8357,-110.5017"/>
<polygon fill="#000000" stroke="#000000" points="384.1286,-113.7622 392.5695,-107.3589 381.9778,-107.1008 384.1286,-113.7622"/>
</g>
</g>
</svg>
