<?xml version="1.0" encoding="UTF-8" standalone="no"?>
<!DOCTYPE svg PUBLIC "-//W3C//DTD SVG 1.1//EN"
 "http://www.w3.org/Graphics/SVG/1.1/DTD/svg11.dtd">
<!-- Generated by graphviz version 2.40.1 (20161225.0304)
 -->
<!-- Title: G Pages: 1 -->
<svg width="650pt" height="476pt"
 viewBox="0.00 0.00 649.96 476.00" xmlns="http://www.w3.org/2000/svg" xmlns:xlink="http://www.w3.org/1999/xlink">
<g id="graph0" class="graph" transform="scale(1 1) rotate(0) translate(4 472)">
<title>G</title>
<polygon fill="#ffffff" stroke="transparent" points="-4,4 -4,-472 645.9619,-472 645.9619,4 -4,4"/>
<!-- i1 = 0 -->
<g id="node1" class="node">
<title>i1 = 0</title>
<ellipse fill="none" stroke="#ff0000" cx="244.3783" cy="-378" rx="32.4942" ry="18"/>
<text text-anchor="middle" x="244.3783" y="-374.3" font-family="Times,serif" font-size="14.00" fill="#000000">i1 = 0</text>
</g>
<!-- b0 = 10 -->
<g id="node2" class="node">
<title>b0 = 10</title>
<ellipse fill="none" stroke="#ff0000" cx="244.3783" cy="-306" rx="38.1938" ry="18"/>
<text text-anchor="middle" x="244.3783" y="-302.3" font-family="Times,serif" font-size="14.00" fill="#000000">b0 = 10</text>
</g>
<!-- i1 = 0&#45;&gt;b0 = 10 -->
<g id="edge2" class="edge">
<title>i1 = 0&#45;&gt;b0 = 10</title>
<path fill="none" stroke="#000000" d="M244.3783,-359.8314C244.3783,-352.131 244.3783,-342.9743 244.3783,-334.4166"/>
<polygon fill="#000000" stroke="#000000" points="247.8784,-334.4132 244.3783,-324.4133 240.8784,-334.4133 247.8784,-334.4132"/>
</g>
<!-- i2 = 0 -->
<g id="node3" class="node">
<title>i2 = 0</title>
<ellipse fill="none" stroke="#ff0000" cx="244.3783" cy="-234" rx="32.4942" ry="18"/>
<text text-anchor="middle" x="244.3783" y="-230.3" font-family="Times,serif" font-size="14.00" fill="#000000">i2 = 0</text>
</g>
<!-- b0 = 10&#45;&gt;i2 = 0 -->
<g id="edge3" class="edge">
<title>b0 = 10&#45;&gt;i2 = 0</title>
<path fill="none" stroke="#000000" d="M244.3783,-287.8314C244.3783,-280.131 244.3783,-270.9743 244.3783,-262.4166"/>
<polygon fill="#000000" stroke="#000000" points="247.8784,-262.4132 244.3783,-252.4133 240.8784,-262.4133 247.8784,-262.4132"/>
</g>
<!-- if i2 &gt;= b0 goto staticinvoke &lt;Slice: void slicingCriteria(int)&gt;(i1) -->
<g id="node4" class="node">
<title>if i2 &gt;= b0 goto staticinvoke &lt;Slice: void slicingCriteria(int)&gt;(i1)</title>
<ellipse fill="none" stroke="#ff0000" cx="244.3783" cy="-162" rx="244.2567" ry="18"/>
<text text-anchor="middle" x="244.3783" y="-158.3" font-family="Times,serif" font-size="14.00" fill="#000000">if i2 &gt;= b0 goto staticinvoke &lt;Slice: void slicingCriteria(int)&gt;(i1)</text>
</g>
<!-- i2 = 0&#45;&gt;if i2 &gt;= b0 goto staticinvoke &lt;Slice: void slicingCriteria(int)&gt;(i1) -->
<g id="edge4" class="edge">
<title>i2 = 0&#45;&gt;if i2 &gt;= b0 goto staticinvoke &lt;Slice: void slicingCriteria(int)&gt;(i1)</title>
<path fill="none" stroke="#000000" d="M244.3783,-215.8314C244.3783,-208.131 244.3783,-198.9743 244.3783,-190.4166"/>
<polygon fill="#000000" stroke="#000000" points="247.8784,-190.4132 244.3783,-180.4133 240.8784,-190.4133 247.8784,-190.4132"/>
</g>
<!-- i1 = i1 + i2 -->
<g id="node5" class="node">
<title>i1 = i1 + i2</title>
<ellipse fill="none" stroke="#ff0000" cx="164.3783" cy="-90" rx="51.9908" ry="18"/>
<text text-anchor="middle" x="164.3783" y="-86.3" font-family="Times,serif" font-size="14.00" fill="#000000">i1 = i1 + i2</text>
</g>
<!-- if i2 &gt;= b0 goto staticinvoke &lt;Slice: void slicingCriteria(int)&gt;(i1)&#45;&gt;i1 = i1 + i2 -->
<g id="edge5" class="edge">
<title>if i2 &gt;= b0 goto staticinvoke &lt;Slice: void slicingCriteria(int)&gt;(i1)&#45;&gt;i1 = i1 + i2</title>
<path fill="none" stroke="#000000" d="M224.1909,-143.8314C214.0597,-134.7132 201.6598,-123.5534 190.7825,-113.7637"/>
<polygon fill="#000000" stroke="#000000" points="192.9597,-111.0144 183.1853,-106.9263 188.2769,-116.2175 192.9597,-111.0144"/>
</g>
<!-- staticinvoke &lt;Slice: void slicingCriteria(int)&gt;(i1) -->
<g id="node7" class="node">
<title>staticinvoke &lt;Slice: void slicingCriteria(int)&gt;(i1)</title>
<ellipse fill="none" stroke="#ff0000" cx="457.3783" cy="-90" rx="184.6673" ry="18"/>
<text text-anchor="middle" x="457.3783" y="-86.3" font-family="Times,serif" font-size="14.00" fill="#000000">staticinvoke &lt;Slice: void slicingCriteria(int)&gt;(i1)</text>
</g>
<!-- if i2 &gt;= b0 goto staticinvoke &lt;Slice: void slicingCriteria(int)&gt;(i1)&#45;&gt;staticinvoke &lt;Slice: void slicingCriteria(int)&gt;(i1) -->
<g id="edge6" class="edge">
<title>if i2 &gt;= b0 goto staticinvoke &lt;Slice: void slicingCriteria(int)&gt;(i1)&#45;&gt;staticinvoke &lt;Slice: void slicingCriteria(int)&gt;(i1)</title>
<path fill="none" stroke="#000000" d="M296.484,-144.3868C326.7315,-134.1623 364.981,-121.2329 396.5961,-110.5461"/>
<polygon fill="#000000" stroke="#000000" points="397.8259,-113.825 406.1785,-107.307 395.5843,-107.1936 397.8259,-113.825"/>
</g>
<!-- i2 = i2 + 1 -->
<g id="node6" class="node">
<title>i2 = i2 + 1</title>
<ellipse fill="none" stroke="#ff0000" cx="204.3783" cy="-18" rx="49.2915" ry="18"/>
<text text-anchor="middle" x="204.3783" y="-14.3" font-family="Times,serif" font-size="14.00" fill="#000000">i2 = i2 + 1</text>
</g>
<!-- i1 = i1 + i2&#45;&gt;i2 = i2 + 1 -->
<g id="edge7" class="edge">
<title>i1 = i1 + i2&#45;&gt;i2 = i2 + 1</title>
<path fill="none" stroke="#000000" d="M174.266,-72.2022C178.8814,-63.8944 184.4719,-53.8316 189.5768,-44.6427"/>
<polygon fill="#000000" stroke="#000000" points="192.6689,-46.2839 194.4658,-35.8425 186.5498,-42.8844 192.6689,-46.2839"/>
</g>
<!-- i2 = i2 + 1&#45;&gt;if i2 &gt;= b0 goto staticinvoke &lt;Slice: void slicingCriteria(int)&gt;(i1) -->
<g id="edge9" class="edge">
<title>i2 = i2 + 1&#45;&gt;if i2 &gt;= b0 goto staticinvoke &lt;Slice: void slicingCriteria(int)&gt;(i1)</title>
<path fill="none" stroke="#000000" d="M212.3255,-36.2356C216.6167,-46.5818 221.7605,-59.853 225.3783,-72 231.4467,-92.3747 236.3417,-115.8968 239.6427,-133.7831"/>
<polygon fill="#000000" stroke="#000000" points="236.2379,-134.6265 241.4435,-143.8543 243.1286,-133.3943 236.2379,-134.6265"/>
</g>
<!-- return -->
<g id="node9" class="node">
<title>return</title>
<ellipse fill="none" stroke="#000000" cx="457.3783" cy="-18" rx="31.6951" ry="18"/>
<text text-anchor="middle" x="457.3783" y="-14.3" font-family="Times,serif" font-size="14.00" fill="#000000">return</text>
</g>
<!-- staticinvoke &lt;Slice: void slicingCriteria(int)&gt;(i1)&#45;&gt;return -->
<g id="edge8" class="edge">
<title>staticinvoke &lt;Slice: void slicingCriteria(int)&gt;(i1)&#45;&gt;return</title>
<path fill="none" stroke="#000000" d="M457.3783,-71.8314C457.3783,-64.131 457.3783,-54.9743 457.3783,-46.4166"/>
<polygon fill="#000000" stroke="#000000" points="460.8784,-46.4132 457.3783,-36.4133 453.8784,-46.4133 460.8784,-46.4132"/>
</g>
<!-- r0 := @parameter0: java.lang.String[] -->
<g id="node8" class="node">
<title>r0 := @parameter0: java.lang.String[]</title>
<ellipse fill="none" stroke="#000000" cx="244.3783" cy="-450" rx="145.6742" ry="18"/>
<text text-anchor="middle" x="244.3783" y="-446.3" font-family="Times,serif" font-size="14.00" fill="#000000">r0 := @parameter0: java.lang.String[]</text>
</g>
<!-- r0 := @parameter0: java.lang.String[]&#45;&gt;i1 = 0 -->
<g id="edge1" class="edge">
<title>r0 := @parameter0: java.lang.String[]&#45;&gt;i1 = 0</title>
<path fill="none" stroke="#000000" d="M244.3783,-431.8314C244.3783,-424.131 244.3783,-414.9743 244.3783,-406.4166"/>
<polygon fill="#000000" stroke="#000000" points="247.8784,-406.4132 244.3783,-396.4133 240.8784,-406.4133 247.8784,-406.4132"/>
</g>
</g>
</svg>
