<?xml version="1.0" encoding="UTF-8" standalone="no"?>
<!DOCTYPE svg PUBLIC "-//W3C//DTD SVG 1.1//EN"
 "http://www.w3.org/Graphics/SVG/1.1/DTD/svg11.dtd">
<!-- Generated by graphviz version 2.40.1 (20161225.0304)
 -->
<!-- Title: G Pages: 1 -->
<svg width="613pt" height="1196pt"
 viewBox="0.00 0.00 613.37 1196.00" xmlns="http://www.w3.org/2000/svg" xmlns:xlink="http://www.w3.org/1999/xlink">
<g id="graph0" class="graph" transform="scale(1 1) rotate(0) translate(4 1192)">
<title>G</title>
<polygon fill="#ffffff" stroke="transparent" points="-4,4 -4,-1192 609.3691,-1192 609.3691,4 -4,4"/>
<!-- i3 = 0 -->
<g id="node1" class="node">
<title>i3 = 0</title>
<ellipse fill="none" stroke="#ff0000" cx="159.2359" cy="-1026" rx="32.4942" ry="18"/>
<text text-anchor="middle" x="159.2359" y="-1022.3" font-family="Times,serif" font-size="14.00" fill="#000000">i3 = 0</text>
</g>
<!-- i4 = 1 -->
<g id="node14" class="node">
<title>i4 = 1</title>
<ellipse fill="none" stroke="#000000" cx="159.2359" cy="-954" rx="32.4942" ry="18"/>
<text text-anchor="middle" x="159.2359" y="-950.3" font-family="Times,serif" font-size="14.00" fill="#000000">i4 = 1</text>
</g>
<!-- i3 = 0&#45;&gt;i4 = 1 -->
<g id="edge3" class="edge">
<title>i3 = 0&#45;&gt;i4 = 1</title>
<path fill="none" stroke="#000000" d="M159.2359,-1007.8314C159.2359,-1000.131 159.2359,-990.9743 159.2359,-982.4166"/>
<polygon fill="#000000" stroke="#000000" points="162.736,-982.4132 159.2359,-972.4133 155.736,-982.4133 162.736,-982.4132"/>
</g>
<!-- i5 = 2 -->
<g id="node2" class="node">
<title>i5 = 2</title>
<ellipse fill="none" stroke="#ff0000" cx="159.2359" cy="-882" rx="32.4942" ry="18"/>
<text text-anchor="middle" x="159.2359" y="-878.3" font-family="Times,serif" font-size="14.00" fill="#000000">i5 = 2</text>
</g>
<!-- i6 = 3 -->
<g id="node15" class="node">
<title>i6 = 3</title>
<ellipse fill="none" stroke="#000000" cx="159.2359" cy="-810" rx="32.4942" ry="18"/>
<text text-anchor="middle" x="159.2359" y="-806.3" font-family="Times,serif" font-size="14.00" fill="#000000">i6 = 3</text>
</g>
<!-- i5 = 2&#45;&gt;i6 = 3 -->
<g id="edge5" class="edge">
<title>i5 = 2&#45;&gt;i6 = 3</title>
<path fill="none" stroke="#000000" d="M159.2359,-863.8314C159.2359,-856.131 159.2359,-846.9743 159.2359,-838.4166"/>
<polygon fill="#000000" stroke="#000000" points="162.736,-838.4132 159.2359,-828.4133 155.736,-838.4133 162.736,-838.4132"/>
</g>
<!-- $r0 = new TA7 -->
<g id="node3" class="node">
<title>$r0 = new TA7</title>
<ellipse fill="none" stroke="#ff0000" cx="159.2359" cy="-666" rx="65.7887" ry="18"/>
<text text-anchor="middle" x="159.2359" y="-662.3" font-family="Times,serif" font-size="14.00" fill="#000000">$r0 = new TA7</text>
</g>
<!-- specialinvoke $r0.&lt;TA7: void &lt;init&gt;()&gt;() -->
<g id="node4" class="node">
<title>specialinvoke $r0.&lt;TA7: void &lt;init&gt;()&gt;()</title>
<ellipse fill="none" stroke="#ff0000" cx="159.2359" cy="-594" rx="159.4721" ry="18"/>
<text text-anchor="middle" x="159.2359" y="-590.3" font-family="Times,serif" font-size="14.00" fill="#000000">specialinvoke $r0.&lt;TA7: void &lt;init&gt;()&gt;()</text>
</g>
<!-- $r0 = new TA7&#45;&gt;specialinvoke $r0.&lt;TA7: void &lt;init&gt;()&gt;() -->
<g id="edge8" class="edge">
<title>$r0 = new TA7&#45;&gt;specialinvoke $r0.&lt;TA7: void &lt;init&gt;()&gt;()</title>
<path fill="none" stroke="#000000" d="M159.2359,-647.8314C159.2359,-640.131 159.2359,-630.9743 159.2359,-622.4166"/>
<polygon fill="#000000" stroke="#000000" points="162.736,-622.4132 159.2359,-612.4133 155.736,-622.4133 162.736,-622.4132"/>
</g>
<!-- r1 = $r0 -->
<g id="node5" class="node">
<title>r1 = $r0</title>
<ellipse fill="none" stroke="#ff0000" cx="159.2359" cy="-522" rx="40.0939" ry="18"/>
<text text-anchor="middle" x="159.2359" y="-518.3" font-family="Times,serif" font-size="14.00" fill="#000000">r1 = $r0</text>
</g>
<!-- specialinvoke $r0.&lt;TA7: void &lt;init&gt;()&gt;()&#45;&gt;r1 = $r0 -->
<g id="edge9" class="edge">
<title>specialinvoke $r0.&lt;TA7: void &lt;init&gt;()&gt;()&#45;&gt;r1 = $r0</title>
<path fill="none" stroke="#000000" d="M159.2359,-575.8314C159.2359,-568.131 159.2359,-558.9743 159.2359,-550.4166"/>
<polygon fill="#000000" stroke="#000000" points="162.736,-550.4132 159.2359,-540.4133 155.736,-550.4133 162.736,-550.4132"/>
</g>
<!-- if i3 &gt;= 11 goto $i0 = r1.&lt;TA7: int f&gt; -->
<g id="node6" class="node">
<title>if i3 &gt;= 11 goto $i0 = r1.&lt;TA7: int f&gt;</title>
<ellipse fill="none" stroke="#ff0000" cx="159.2359" cy="-450" rx="147.5738" ry="18"/>
<text text-anchor="middle" x="159.2359" y="-446.3" font-family="Times,serif" font-size="14.00" fill="#000000">if i3 &gt;= 11 goto $i0 = r1.&lt;TA7: int f&gt;</text>
</g>
<!-- r1 = $r0&#45;&gt;if i3 &gt;= 11 goto $i0 = r1.&lt;TA7: int f&gt; -->
<g id="edge10" class="edge">
<title>r1 = $r0&#45;&gt;if i3 &gt;= 11 goto $i0 = r1.&lt;TA7: int f&gt;</title>
<path fill="none" stroke="#000000" d="M159.2359,-503.8314C159.2359,-496.131 159.2359,-486.9743 159.2359,-478.4166"/>
<polygon fill="#000000" stroke="#000000" points="162.736,-478.4132 159.2359,-468.4133 155.736,-478.4133 162.736,-478.4132"/>
</g>
<!-- i2 = i2 + i3 -->
<g id="node17" class="node">
<title>i2 = i2 + i3</title>
<ellipse fill="none" stroke="#000000" cx="79.2359" cy="-378" rx="51.9908" ry="18"/>
<text text-anchor="middle" x="79.2359" y="-374.3" font-family="Times,serif" font-size="14.00" fill="#000000">i2 = i2 + i3</text>
</g>
<!-- if i3 &gt;= 11 goto $i0 = r1.&lt;TA7: int f&gt;&#45;&gt;i2 = i2 + i3 -->
<g id="edge11" class="edge">
<title>if i3 &gt;= 11 goto $i0 = r1.&lt;TA7: int f&gt;&#45;&gt;i2 = i2 + i3</title>
<path fill="none" stroke="#000000" d="M139.0485,-431.8314C128.9173,-422.7132 116.5174,-411.5534 105.64,-401.7637"/>
<polygon fill="#000000" stroke="#000000" points="107.8172,-399.0144 98.0429,-394.9263 103.1344,-404.2175 107.8172,-399.0144"/>
</g>
<!-- $i0 = r1.&lt;TA7: int f&gt; -->
<g id="node18" class="node">
<title>$i0 = r1.&lt;TA7: int f&gt;</title>
<ellipse fill="none" stroke="#000000" cx="305.2359" cy="-378" rx="88.2844" ry="18"/>
<text text-anchor="middle" x="305.2359" y="-374.3" font-family="Times,serif" font-size="14.00" fill="#000000">$i0 = r1.&lt;TA7: int f&gt;</text>
</g>
<!-- if i3 &gt;= 11 goto $i0 = r1.&lt;TA7: int f&gt;&#45;&gt;$i0 = r1.&lt;TA7: int f&gt; -->
<g id="edge12" class="edge">
<title>if i3 &gt;= 11 goto $i0 = r1.&lt;TA7: int f&gt;&#45;&gt;$i0 = r1.&lt;TA7: int f&gt;</title>
<path fill="none" stroke="#000000" d="M194.9515,-432.3868C215.2479,-422.3776 240.8007,-409.7763 262.1979,-399.2242"/>
<polygon fill="#000000" stroke="#000000" points="263.973,-402.2513 271.3937,-394.6893 260.8769,-395.9732 263.973,-402.2513"/>
</g>
<!-- i3 = i3 + 1 -->
<g id="node7" class="node">
<title>i3 = i3 + 1</title>
<ellipse fill="none" stroke="#ff0000" cx="79.2359" cy="-306" rx="49.2915" ry="18"/>
<text text-anchor="middle" x="79.2359" y="-302.3" font-family="Times,serif" font-size="14.00" fill="#000000">i3 = i3 + 1</text>
</g>
<!-- i4 = i4 + i3 -->
<g id="node20" class="node">
<title>i4 = i4 + i3</title>
<ellipse fill="none" stroke="#000000" cx="79.2359" cy="-234" rx="51.9908" ry="18"/>
<text text-anchor="middle" x="79.2359" y="-230.3" font-family="Times,serif" font-size="14.00" fill="#000000">i4 = i4 + i3</text>
</g>
<!-- i3 = i3 + 1&#45;&gt;i4 = i4 + i3 -->
<g id="edge15" class="edge">
<title>i3 = i3 + 1&#45;&gt;i4 = i4 + i3</title>
<path fill="none" stroke="#000000" d="M79.2359,-287.8314C79.2359,-280.131 79.2359,-270.9743 79.2359,-262.4166"/>
<polygon fill="#000000" stroke="#000000" points="82.736,-262.4132 79.2359,-252.4133 75.736,-262.4133 82.736,-262.4132"/>
</g>
<!-- i5 = i5 + i3 -->
<g id="node8" class="node">
<title>i5 = i5 + i3</title>
<ellipse fill="none" stroke="#ff0000" cx="79.2359" cy="-162" rx="51.9908" ry="18"/>
<text text-anchor="middle" x="79.2359" y="-158.3" font-family="Times,serif" font-size="14.00" fill="#000000">i5 = i5 + i3</text>
</g>
<!-- i6 = i6 + i3 -->
<g id="node22" class="node">
<title>i6 = i6 + i3</title>
<ellipse fill="none" stroke="#000000" cx="79.2359" cy="-90" rx="51.9908" ry="18"/>
<text text-anchor="middle" x="79.2359" y="-86.3" font-family="Times,serif" font-size="14.00" fill="#000000">i6 = i6 + i3</text>
</g>
<!-- i5 = i5 + i3&#45;&gt;i6 = i6 + i3 -->
<g id="edge21" class="edge">
<title>i5 = i5 + i3&#45;&gt;i6 = i6 + i3</title>
<path fill="none" stroke="#000000" d="M79.2359,-143.8314C79.2359,-136.131 79.2359,-126.9743 79.2359,-118.4166"/>
<polygon fill="#000000" stroke="#000000" points="82.736,-118.4132 79.2359,-108.4133 75.736,-118.4133 82.736,-118.4132"/>
</g>
<!-- r1.&lt;TA7: int f&gt; = i5 -->
<g id="node9" class="node">
<title>r1.&lt;TA7: int f&gt; = i5</title>
<ellipse fill="none" stroke="#ff0000" cx="303.2359" cy="-234" rx="83.6854" ry="18"/>
<text text-anchor="middle" x="303.2359" y="-230.3" font-family="Times,serif" font-size="14.00" fill="#000000">r1.&lt;TA7: int f&gt; = i5</text>
</g>
<!-- $i1 = r1.&lt;TA7: int f&gt; -->
<g id="node10" class="node">
<title>$i1 = r1.&lt;TA7: int f&gt;</title>
<ellipse fill="none" stroke="#ff0000" cx="416.2359" cy="-162" rx="88.2844" ry="18"/>
<text text-anchor="middle" x="416.2359" y="-158.3" font-family="Times,serif" font-size="14.00" fill="#000000">$i1 = r1.&lt;TA7: int f&gt;</text>
</g>
<!-- r1.&lt;TA7: int f&gt; = i5&#45;&gt;$i1 = r1.&lt;TA7: int f&gt; -->
<g id="edge19" class="edge">
<title>r1.&lt;TA7: int f&gt; = i5&#45;&gt;$i1 = r1.&lt;TA7: int f&gt;</title>
<path fill="none" stroke="#000000" d="M330.0153,-216.937C345.1037,-207.3231 364.1454,-195.1904 380.4939,-184.7737"/>
<polygon fill="#000000" stroke="#000000" points="382.7043,-187.5154 389.2571,-179.19 378.9427,-181.6119 382.7043,-187.5154"/>
</g>
<!-- staticinvoke &lt;Slice: void slicingCriteria(int)&gt;($i1) -->
<g id="node11" class="node">
<title>staticinvoke &lt;Slice: void slicingCriteria(int)&gt;($i1)</title>
<ellipse fill="none" stroke="#ff0000" cx="416.2359" cy="-90" rx="189.2665" ry="18"/>
<text text-anchor="middle" x="416.2359" y="-86.3" font-family="Times,serif" font-size="14.00" fill="#000000">staticinvoke &lt;Slice: void slicingCriteria(int)&gt;($i1)</text>
</g>
<!-- $i1 = r1.&lt;TA7: int f&gt;&#45;&gt;staticinvoke &lt;Slice: void slicingCriteria(int)&gt;($i1) -->
<g id="edge22" class="edge">
<title>$i1 = r1.&lt;TA7: int f&gt;&#45;&gt;staticinvoke &lt;Slice: void slicingCriteria(int)&gt;($i1)</title>
<path fill="none" stroke="#000000" d="M416.2359,-143.8314C416.2359,-136.131 416.2359,-126.9743 416.2359,-118.4166"/>
<polygon fill="#000000" stroke="#000000" points="419.736,-118.4132 416.2359,-108.4133 412.736,-118.4133 419.736,-118.4132"/>
</g>
<!-- return -->
<g id="node24" class="node">
<title>return</title>
<ellipse fill="none" stroke="#000000" cx="416.2359" cy="-18" rx="31.6951" ry="18"/>
<text text-anchor="middle" x="416.2359" y="-14.3" font-family="Times,serif" font-size="14.00" fill="#000000">return</text>
</g>
<!-- staticinvoke &lt;Slice: void slicingCriteria(int)&gt;($i1)&#45;&gt;return -->
<g id="edge24" class="edge">
<title>staticinvoke &lt;Slice: void slicingCriteria(int)&gt;($i1)&#45;&gt;return</title>
<path fill="none" stroke="#000000" d="M416.2359,-71.8314C416.2359,-64.131 416.2359,-54.9743 416.2359,-46.4166"/>
<polygon fill="#000000" stroke="#000000" points="419.736,-46.4132 416.2359,-36.4133 412.736,-46.4133 419.736,-46.4132"/>
</g>
<!-- r2 := @parameter0: java.lang.String[] -->
<g id="node12" class="node">
<title>r2 := @parameter0: java.lang.String[]</title>
<ellipse fill="none" stroke="#000000" cx="159.2359" cy="-1170" rx="145.6742" ry="18"/>
<text text-anchor="middle" x="159.2359" y="-1166.3" font-family="Times,serif" font-size="14.00" fill="#000000">r2 := @parameter0: java.lang.String[]</text>
</g>
<!-- i2 = 0 -->
<g id="node13" class="node">
<title>i2 = 0</title>
<ellipse fill="none" stroke="#000000" cx="159.2359" cy="-1098" rx="32.4942" ry="18"/>
<text text-anchor="middle" x="159.2359" y="-1094.3" font-family="Times,serif" font-size="14.00" fill="#000000">i2 = 0</text>
</g>
<!-- r2 := @parameter0: java.lang.String[]&#45;&gt;i2 = 0 -->
<g id="edge1" class="edge">
<title>r2 := @parameter0: java.lang.String[]&#45;&gt;i2 = 0</title>
<path fill="none" stroke="#000000" d="M159.2359,-1151.8314C159.2359,-1144.131 159.2359,-1134.9743 159.2359,-1126.4166"/>
<polygon fill="#000000" stroke="#000000" points="162.736,-1126.4132 159.2359,-1116.4133 155.736,-1126.4133 162.736,-1126.4132"/>
</g>
<!-- i2 = 0&#45;&gt;i3 = 0 -->
<g id="edge2" class="edge">
<title>i2 = 0&#45;&gt;i3 = 0</title>
<path fill="none" stroke="#000000" d="M159.2359,-1079.8314C159.2359,-1072.131 159.2359,-1062.9743 159.2359,-1054.4166"/>
<polygon fill="#000000" stroke="#000000" points="162.736,-1054.4132 159.2359,-1044.4133 155.736,-1054.4133 162.736,-1054.4132"/>
</g>
<!-- i4 = 1&#45;&gt;i5 = 2 -->
<g id="edge4" class="edge">
<title>i4 = 1&#45;&gt;i5 = 2</title>
<path fill="none" stroke="#000000" d="M159.2359,-935.8314C159.2359,-928.131 159.2359,-918.9743 159.2359,-910.4166"/>
<polygon fill="#000000" stroke="#000000" points="162.736,-910.4132 159.2359,-900.4133 155.736,-910.4133 162.736,-910.4132"/>
</g>
<!-- i7 = 4 -->
<g id="node16" class="node">
<title>i7 = 4</title>
<ellipse fill="none" stroke="#000000" cx="159.2359" cy="-738" rx="32.4942" ry="18"/>
<text text-anchor="middle" x="159.2359" y="-734.3" font-family="Times,serif" font-size="14.00" fill="#000000">i7 = 4</text>
</g>
<!-- i6 = 3&#45;&gt;i7 = 4 -->
<g id="edge6" class="edge">
<title>i6 = 3&#45;&gt;i7 = 4</title>
<path fill="none" stroke="#000000" d="M159.2359,-791.8314C159.2359,-784.131 159.2359,-774.9743 159.2359,-766.4166"/>
<polygon fill="#000000" stroke="#000000" points="162.736,-766.4132 159.2359,-756.4133 155.736,-766.4133 162.736,-766.4132"/>
</g>
<!-- i7 = 4&#45;&gt;$r0 = new TA7 -->
<g id="edge7" class="edge">
<title>i7 = 4&#45;&gt;$r0 = new TA7</title>
<path fill="none" stroke="#000000" d="M159.2359,-719.8314C159.2359,-712.131 159.2359,-702.9743 159.2359,-694.4166"/>
<polygon fill="#000000" stroke="#000000" points="162.736,-694.4132 159.2359,-684.4133 155.736,-694.4133 162.736,-694.4132"/>
</g>
<!-- i2 = i2 + i3&#45;&gt;i3 = i3 + 1 -->
<g id="edge13" class="edge">
<title>i2 = i2 + i3&#45;&gt;i3 = i3 + 1</title>
<path fill="none" stroke="#000000" d="M79.2359,-359.8314C79.2359,-352.131 79.2359,-342.9743 79.2359,-334.4166"/>
<polygon fill="#000000" stroke="#000000" points="82.736,-334.4132 79.2359,-324.4133 75.736,-334.4133 82.736,-334.4132"/>
</g>
<!-- if $i0 &lt;= 10 goto i8 = r1.&lt;TA7: int f&gt; -->
<g id="node19" class="node">
<title>if $i0 &lt;= 10 goto i8 = r1.&lt;TA7: int f&gt;</title>
<ellipse fill="none" stroke="#000000" cx="335.2359" cy="-306" rx="147.5738" ry="18"/>
<text text-anchor="middle" x="335.2359" y="-302.3" font-family="Times,serif" font-size="14.00" fill="#000000">if $i0 &lt;= 10 goto i8 = r1.&lt;TA7: int f&gt;</text>
</g>
<!-- $i0 = r1.&lt;TA7: int f&gt;&#45;&gt;if $i0 &lt;= 10 goto i8 = r1.&lt;TA7: int f&gt; -->
<g id="edge14" class="edge">
<title>$i0 = r1.&lt;TA7: int f&gt;&#45;&gt;if $i0 &lt;= 10 goto i8 = r1.&lt;TA7: int f&gt;</title>
<path fill="none" stroke="#000000" d="M312.8061,-359.8314C316.0852,-351.9617 319.9979,-342.5712 323.6303,-333.8533"/>
<polygon fill="#000000" stroke="#000000" points="326.9482,-334.9902 327.5637,-324.4133 320.4867,-332.2979 326.9482,-334.9902"/>
</g>
<!-- if $i0 &lt;= 10 goto i8 = r1.&lt;TA7: int f&gt;&#45;&gt;r1.&lt;TA7: int f&gt; = i5 -->
<g id="edge16" class="edge">
<title>if $i0 &lt;= 10 goto i8 = r1.&lt;TA7: int f&gt;&#45;&gt;r1.&lt;TA7: int f&gt; = i5</title>
<path fill="none" stroke="#000000" d="M327.1609,-287.8314C323.6257,-279.8771 319.3999,-270.369 315.4902,-261.5723"/>
<polygon fill="#000000" stroke="#000000" points="318.6793,-260.1299 311.4195,-252.4133 312.2826,-262.9729 318.6793,-260.1299"/>
</g>
<!-- i8 = r1.&lt;TA7: int f&gt; -->
<g id="node21" class="node">
<title>i8 = r1.&lt;TA7: int f&gt;</title>
<ellipse fill="none" stroke="#000000" cx="489.2359" cy="-234" rx="83.6854" ry="18"/>
<text text-anchor="middle" x="489.2359" y="-230.3" font-family="Times,serif" font-size="14.00" fill="#000000">i8 = r1.&lt;TA7: int f&gt;</text>
</g>
<!-- if $i0 &lt;= 10 goto i8 = r1.&lt;TA7: int f&gt;&#45;&gt;i8 = r1.&lt;TA7: int f&gt; -->
<g id="edge17" class="edge">
<title>if $i0 &lt;= 10 goto i8 = r1.&lt;TA7: int f&gt;&#45;&gt;i8 = r1.&lt;TA7: int f&gt;</title>
<path fill="none" stroke="#000000" d="M372.515,-288.5708C394.3433,-278.3654 422.0362,-265.418 444.9693,-254.6961"/>
<polygon fill="#000000" stroke="#000000" points="446.5729,-257.81 454.1494,-250.4041 443.6082,-251.4688 446.5729,-257.81"/>
</g>
<!-- i4 = i4 + i3&#45;&gt;i5 = i5 + i3 -->
<g id="edge18" class="edge">
<title>i4 = i4 + i3&#45;&gt;i5 = i5 + i3</title>
<path fill="none" stroke="#000000" d="M79.2359,-215.8314C79.2359,-208.131 79.2359,-198.9743 79.2359,-190.4166"/>
<polygon fill="#000000" stroke="#000000" points="82.736,-190.4132 79.2359,-180.4133 75.736,-190.4133 82.736,-190.4132"/>
</g>
<!-- i8 = r1.&lt;TA7: int f&gt;&#45;&gt;$i1 = r1.&lt;TA7: int f&gt; -->
<g id="edge20" class="edge">
<title>i8 = r1.&lt;TA7: int f&gt;&#45;&gt;$i1 = r1.&lt;TA7: int f&gt;</title>
<path fill="none" stroke="#000000" d="M471.1909,-216.2022C462.2413,-207.3752 451.2828,-196.5669 441.5128,-186.9307"/>
<polygon fill="#000000" stroke="#000000" points="443.9037,-184.3728 434.3262,-179.8425 438.9882,-189.3566 443.9037,-184.3728"/>
</g>
<!-- i7 = i7 + i2 -->
<g id="node23" class="node">
<title>i7 = i7 + i2</title>
<ellipse fill="none" stroke="#000000" cx="119.2359" cy="-18" rx="51.9908" ry="18"/>
<text text-anchor="middle" x="119.2359" y="-14.3" font-family="Times,serif" font-size="14.00" fill="#000000">i7 = i7 + i2</text>
</g>
<!-- i6 = i6 + i3&#45;&gt;i7 = i7 + i2 -->
<g id="edge23" class="edge">
<title>i6 = i6 + i3&#45;&gt;i7 = i7 + i2</title>
<path fill="none" stroke="#000000" d="M89.1235,-72.2022C93.739,-63.8944 99.3294,-53.8316 104.4344,-44.6427"/>
<polygon fill="#000000" stroke="#000000" points="107.5264,-46.2839 109.3233,-35.8425 101.4073,-42.8844 107.5264,-46.2839"/>
</g>
<!-- i7 = i7 + i2&#45;&gt;if i3 &gt;= 11 goto $i0 = r1.&lt;TA7: int f&gt; -->
<g id="edge25" class="edge">
<title>i7 = i7 + i2&#45;&gt;if i3 &gt;= 11 goto $i0 = r1.&lt;TA7: int f&gt;</title>
<path fill="none" stroke="#000000" d="M127.7188,-36.19C139.4605,-63.0782 159.2359,-115.2961 159.2359,-162 159.2359,-306 159.2359,-306 159.2359,-306 159.2359,-346.124 159.2359,-392.5369 159.2359,-421.5823"/>
<polygon fill="#000000" stroke="#000000" points="155.736,-421.8146 159.2359,-431.8146 162.736,-421.8147 155.736,-421.8146"/>
</g>
</g>
</svg>
