<?xml version="1.0" encoding="UTF-8" standalone="no"?>
<!DOCTYPE svg PUBLIC "-//W3C//DTD SVG 1.1//EN"
 "http://www.w3.org/Graphics/SVG/1.1/DTD/svg11.dtd">
<!-- Generated by graphviz version 2.40.1 (20161225.0304)
 -->
<!-- Title: G Pages: 1 -->
<svg width="836pt" height="1196pt"
 viewBox="0.00 0.00 835.91 1196.00" xmlns="http://www.w3.org/2000/svg" xmlns:xlink="http://www.w3.org/1999/xlink">
<g id="graph0" class="graph" transform="scale(1 1) rotate(0) translate(4 1192)">
<title>G</title>
<polygon fill="#ffffff" stroke="transparent" points="-4,4 -4,-1192 831.9118,-1192 831.9118,4 -4,4"/>
<!-- b0 = 5 -->
<g id="node1" class="node">
<title>b0 = 5</title>
<ellipse fill="none" stroke="#ff0000" cx="198.8824" cy="-1098" rx="34.394" ry="18"/>
<text text-anchor="middle" x="198.8824" y="-1094.3" font-family="Times,serif" font-size="14.00" fill="#000000">b0 = 5</text>
</g>
<!-- i2 = 0 -->
<g id="node9" class="node">
<title>i2 = 0</title>
<ellipse fill="none" stroke="#000000" cx="198.8824" cy="-1026" rx="32.4942" ry="18"/>
<text text-anchor="middle" x="198.8824" y="-1022.3" font-family="Times,serif" font-size="14.00" fill="#000000">i2 = 0</text>
</g>
<!-- b0 = 5&#45;&gt;i2 = 0 -->
<g id="edge2" class="edge">
<title>b0 = 5&#45;&gt;i2 = 0</title>
<path fill="none" stroke="#000000" d="M198.8824,-1079.8314C198.8824,-1072.131 198.8824,-1062.9743 198.8824,-1054.4166"/>
<polygon fill="#000000" stroke="#000000" points="202.3825,-1054.4132 198.8824,-1044.4133 195.3825,-1054.4133 202.3825,-1054.4132"/>
</g>
<!-- i3 = 10 -->
<g id="node2" class="node">
<title>i3 = 10</title>
<ellipse fill="none" stroke="#ff0000" cx="198.8824" cy="-954" rx="36.2938" ry="18"/>
<text text-anchor="middle" x="198.8824" y="-950.3" font-family="Times,serif" font-size="14.00" fill="#000000">i3 = 10</text>
</g>
<!-- i4 = 0 -->
<g id="node10" class="node">
<title>i4 = 0</title>
<ellipse fill="none" stroke="#000000" cx="198.8824" cy="-882" rx="32.4942" ry="18"/>
<text text-anchor="middle" x="198.8824" y="-878.3" font-family="Times,serif" font-size="14.00" fill="#000000">i4 = 0</text>
</g>
<!-- i3 = 10&#45;&gt;i4 = 0 -->
<g id="edge4" class="edge">
<title>i3 = 10&#45;&gt;i4 = 0</title>
<path fill="none" stroke="#000000" d="M198.8824,-935.8314C198.8824,-928.131 198.8824,-918.9743 198.8824,-910.4166"/>
<polygon fill="#000000" stroke="#000000" points="202.3825,-910.4132 198.8824,-900.4133 195.3825,-910.4133 202.3825,-910.4132"/>
</g>
<!-- i3 = i3 + 2 -->
<g id="node3" class="node">
<title>i3 = i3 + 2</title>
<ellipse fill="none" stroke="#ff0000" cx="118.8824" cy="-666" rx="49.2915" ry="18"/>
<text text-anchor="middle" x="118.8824" y="-662.3" font-family="Times,serif" font-size="14.00" fill="#000000">i3 = i3 + 2</text>
</g>
<!-- i4 = i4 + 1 -->
<g id="node15" class="node">
<title>i4 = i4 + 1</title>
<ellipse fill="none" stroke="#000000" cx="118.8824" cy="-594" rx="49.2915" ry="18"/>
<text text-anchor="middle" x="118.8824" y="-590.3" font-family="Times,serif" font-size="14.00" fill="#000000">i4 = i4 + 1</text>
</g>
<!-- i3 = i3 + 2&#45;&gt;i4 = i4 + 1 -->
<g id="edge10" class="edge">
<title>i3 = i3 + 2&#45;&gt;i4 = i4 + 1</title>
<path fill="none" stroke="#000000" d="M118.8824,-647.8314C118.8824,-640.131 118.8824,-630.9743 118.8824,-622.4166"/>
<polygon fill="#000000" stroke="#000000" points="122.3825,-622.4132 118.8824,-612.4133 115.3825,-622.4133 122.3825,-622.4132"/>
</g>
<!-- if b0 &lt;= i3 goto $r2 = &lt;java.lang.System: java.io.PrintStream out&gt; -->
<g id="node4" class="node">
<title>if b0 &lt;= i3 goto $r2 = &lt;java.lang.System: java.io.PrintStream out&gt;</title>
<ellipse fill="none" stroke="#ff0000" cx="436.8824" cy="-594" rx="250.7555" ry="18"/>
<text text-anchor="middle" x="436.8824" y="-590.3" font-family="Times,serif" font-size="14.00" fill="#000000">if b0 &lt;= i3 goto $r2 = &lt;java.lang.System: java.io.PrintStream out&gt;</text>
</g>
<!-- $r2 = &lt;java.lang.System: java.io.PrintStream out&gt; -->
<g id="node5" class="node">
<title>$r2 = &lt;java.lang.System: java.io.PrintStream out&gt;</title>
<ellipse fill="none" stroke="#ff0000" cx="335.8824" cy="-234" rx="191.9663" ry="18"/>
<text text-anchor="middle" x="335.8824" y="-230.3" font-family="Times,serif" font-size="14.00" fill="#000000">$r2 = &lt;java.lang.System: java.io.PrintStream out&gt;</text>
</g>
<!-- if b0 &lt;= i3 goto $r2 = &lt;java.lang.System: java.io.PrintStream out&gt;&#45;&gt;$r2 = &lt;java.lang.System: java.io.PrintStream out&gt; -->
<g id="edge16" class="edge">
<title>if b0 &lt;= i3 goto $r2 = &lt;java.lang.System: java.io.PrintStream out&gt;&#45;&gt;$r2 = &lt;java.lang.System: java.io.PrintStream out&gt;</title>
<path fill="none" stroke="#000000" d="M369.7203,-576.5881C350.1092,-568.4485 330.3521,-556.7252 316.8824,-540 291.2399,-508.1602 297.8824,-490.8816 297.8824,-450 297.8824,-450 297.8824,-450 297.8824,-378 297.8824,-336.3681 312.9151,-290.14 324.0705,-261.567"/>
<polygon fill="#000000" stroke="#000000" points="327.3402,-262.817 327.8235,-252.2332 320.8455,-260.2055 327.3402,-262.817"/>
</g>
<!-- if i2 &gt;= i3 goto $r2 = &lt;java.lang.System: java.io.PrintStream out&gt; -->
<g id="node17" class="node">
<title>if i2 &gt;= i3 goto $r2 = &lt;java.lang.System: java.io.PrintStream out&gt;</title>
<ellipse fill="none" stroke="#000000" cx="574.8824" cy="-522" rx="248.8558" ry="18"/>
<text text-anchor="middle" x="574.8824" y="-518.3" font-family="Times,serif" font-size="14.00" fill="#000000">if i2 &gt;= i3 goto $r2 = &lt;java.lang.System: java.io.PrintStream out&gt;</text>
</g>
<!-- if b0 &lt;= i3 goto $r2 = &lt;java.lang.System: java.io.PrintStream out&gt;&#45;&gt;if i2 &gt;= i3 goto $r2 = &lt;java.lang.System: java.io.PrintStream out&gt; -->
<g id="edge15" class="edge">
<title>if b0 &lt;= i3 goto $r2 = &lt;java.lang.System: java.io.PrintStream out&gt;&#45;&gt;if i2 &gt;= i3 goto $r2 = &lt;java.lang.System: java.io.PrintStream out&gt;</title>
<path fill="none" stroke="#000000" d="M471.3496,-576.0171C489.5441,-566.5243 512.0548,-554.7796 531.4341,-544.6687"/>
<polygon fill="#000000" stroke="#000000" points="533.1294,-547.732 540.3762,-540.0032 529.8914,-541.5259 533.1294,-547.732"/>
</g>
<!-- virtualinvoke $r2.&lt;java.io.PrintStream: void println(int)&gt;(b0) -->
<g id="node6" class="node">
<title>virtualinvoke $r2.&lt;java.io.PrintStream: void println(int)&gt;(b0)</title>
<ellipse fill="none" stroke="#ff0000" cx="335.8824" cy="-162" rx="229.3593" ry="18"/>
<text text-anchor="middle" x="335.8824" y="-158.3" font-family="Times,serif" font-size="14.00" fill="#000000">virtualinvoke $r2.&lt;java.io.PrintStream: void println(int)&gt;(b0)</text>
</g>
<!-- $r2 = &lt;java.lang.System: java.io.PrintStream out&gt;&#45;&gt;virtualinvoke $r2.&lt;java.io.PrintStream: void println(int)&gt;(b0) -->
<g id="edge19" class="edge">
<title>$r2 = &lt;java.lang.System: java.io.PrintStream out&gt;&#45;&gt;virtualinvoke $r2.&lt;java.io.PrintStream: void println(int)&gt;(b0)</title>
<path fill="none" stroke="#000000" d="M335.8824,-215.8314C335.8824,-208.131 335.8824,-198.9743 335.8824,-190.4166"/>
<polygon fill="#000000" stroke="#000000" points="339.3825,-190.4132 335.8824,-180.4133 332.3825,-190.4133 339.3825,-190.4132"/>
</g>
<!-- staticinvoke &lt;Slice: void slicingCriteria(int)&gt;(b0) -->
<g id="node7" class="node">
<title>staticinvoke &lt;Slice: void slicingCriteria(int)&gt;(b0)</title>
<ellipse fill="none" stroke="#ff0000" cx="335.8824" cy="-90" rx="186.5669" ry="18"/>
<text text-anchor="middle" x="335.8824" y="-86.3" font-family="Times,serif" font-size="14.00" fill="#000000">staticinvoke &lt;Slice: void slicingCriteria(int)&gt;(b0)</text>
</g>
<!-- virtualinvoke $r2.&lt;java.io.PrintStream: void println(int)&gt;(b0)&#45;&gt;staticinvoke &lt;Slice: void slicingCriteria(int)&gt;(b0) -->
<g id="edge21" class="edge">
<title>virtualinvoke $r2.&lt;java.io.PrintStream: void println(int)&gt;(b0)&#45;&gt;staticinvoke &lt;Slice: void slicingCriteria(int)&gt;(b0)</title>
<path fill="none" stroke="#000000" d="M335.8824,-143.8314C335.8824,-136.131 335.8824,-126.9743 335.8824,-118.4166"/>
<polygon fill="#000000" stroke="#000000" points="339.3825,-118.4132 335.8824,-108.4133 332.3825,-118.4133 339.3825,-118.4132"/>
</g>
<!-- return -->
<g id="node21" class="node">
<title>return</title>
<ellipse fill="none" stroke="#000000" cx="335.8824" cy="-18" rx="31.6951" ry="18"/>
<text text-anchor="middle" x="335.8824" y="-14.3" font-family="Times,serif" font-size="14.00" fill="#000000">return</text>
</g>
<!-- staticinvoke &lt;Slice: void slicingCriteria(int)&gt;(b0)&#45;&gt;return -->
<g id="edge23" class="edge">
<title>staticinvoke &lt;Slice: void slicingCriteria(int)&gt;(b0)&#45;&gt;return</title>
<path fill="none" stroke="#000000" d="M335.8824,-71.8314C335.8824,-64.131 335.8824,-54.9743 335.8824,-46.4166"/>
<polygon fill="#000000" stroke="#000000" points="339.3825,-46.4132 335.8824,-36.4133 332.3825,-46.4133 339.3825,-46.4132"/>
</g>
<!-- r1 := @parameter0: java.lang.String[] -->
<g id="node8" class="node">
<title>r1 := @parameter0: java.lang.String[]</title>
<ellipse fill="none" stroke="#000000" cx="198.8824" cy="-1170" rx="145.6742" ry="18"/>
<text text-anchor="middle" x="198.8824" y="-1166.3" font-family="Times,serif" font-size="14.00" fill="#000000">r1 := @parameter0: java.lang.String[]</text>
</g>
<!-- r1 := @parameter0: java.lang.String[]&#45;&gt;b0 = 5 -->
<g id="edge1" class="edge">
<title>r1 := @parameter0: java.lang.String[]&#45;&gt;b0 = 5</title>
<path fill="none" stroke="#000000" d="M198.8824,-1151.8314C198.8824,-1144.131 198.8824,-1134.9743 198.8824,-1126.4166"/>
<polygon fill="#000000" stroke="#000000" points="202.3825,-1126.4132 198.8824,-1116.4133 195.3825,-1126.4133 202.3825,-1126.4132"/>
</g>
<!-- i2 = 0&#45;&gt;i3 = 10 -->
<g id="edge3" class="edge">
<title>i2 = 0&#45;&gt;i3 = 10</title>
<path fill="none" stroke="#000000" d="M198.8824,-1007.8314C198.8824,-1000.131 198.8824,-990.9743 198.8824,-982.4166"/>
<polygon fill="#000000" stroke="#000000" points="202.3825,-982.4132 198.8824,-972.4133 195.3825,-982.4133 202.3825,-982.4132"/>
</g>
<!-- if i4 &gt;= 10 goto i5 = staticinvoke &lt;TA8: int foo()&gt;() -->
<g id="node11" class="node">
<title>if i4 &gt;= 10 goto i5 = staticinvoke &lt;TA8: int foo()&gt;()</title>
<ellipse fill="none" stroke="#000000" cx="198.8824" cy="-810" rx="198.7648" ry="18"/>
<text text-anchor="middle" x="198.8824" y="-806.3" font-family="Times,serif" font-size="14.00" fill="#000000">if i4 &gt;= 10 goto i5 = staticinvoke &lt;TA8: int foo()&gt;()</text>
</g>
<!-- i4 = 0&#45;&gt;if i4 &gt;= 10 goto i5 = staticinvoke &lt;TA8: int foo()&gt;() -->
<g id="edge5" class="edge">
<title>i4 = 0&#45;&gt;if i4 &gt;= 10 goto i5 = staticinvoke &lt;TA8: int foo()&gt;()</title>
<path fill="none" stroke="#000000" d="M198.8824,-863.8314C198.8824,-856.131 198.8824,-846.9743 198.8824,-838.4166"/>
<polygon fill="#000000" stroke="#000000" points="202.3825,-838.4132 198.8824,-828.4133 195.3825,-838.4133 202.3825,-838.4132"/>
</g>
<!-- i2 = i2 + i3 -->
<g id="node12" class="node">
<title>i2 = i2 + i3</title>
<ellipse fill="none" stroke="#000000" cx="118.8824" cy="-738" rx="51.9908" ry="18"/>
<text text-anchor="middle" x="118.8824" y="-734.3" font-family="Times,serif" font-size="14.00" fill="#000000">i2 = i2 + i3</text>
</g>
<!-- if i4 &gt;= 10 goto i5 = staticinvoke &lt;TA8: int foo()&gt;()&#45;&gt;i2 = i2 + i3 -->
<g id="edge6" class="edge">
<title>if i4 &gt;= 10 goto i5 = staticinvoke &lt;TA8: int foo()&gt;()&#45;&gt;i2 = i2 + i3</title>
<path fill="none" stroke="#000000" d="M178.695,-791.8314C168.5637,-782.7132 156.1639,-771.5534 145.2865,-761.7637"/>
<polygon fill="#000000" stroke="#000000" points="147.4637,-759.0144 137.6893,-754.9263 142.7809,-764.2175 147.4637,-759.0144"/>
</g>
<!-- i5 = staticinvoke &lt;TA8: int foo()&gt;() -->
<g id="node13" class="node">
<title>i5 = staticinvoke &lt;TA8: int foo()&gt;()</title>
<ellipse fill="none" stroke="#000000" cx="559.8824" cy="-738" rx="139.9756" ry="18"/>
<text text-anchor="middle" x="559.8824" y="-734.3" font-family="Times,serif" font-size="14.00" fill="#000000">i5 = staticinvoke &lt;TA8: int foo()&gt;()</text>
</g>
<!-- if i4 &gt;= 10 goto i5 = staticinvoke &lt;TA8: int foo()&gt;()&#45;&gt;i5 = staticinvoke &lt;TA8: int foo()&gt;() -->
<g id="edge7" class="edge">
<title>if i4 &gt;= 10 goto i5 = staticinvoke &lt;TA8: int foo()&gt;()&#45;&gt;i5 = staticinvoke &lt;TA8: int foo()&gt;()</title>
<path fill="none" stroke="#000000" d="M281.2505,-793.572C338.8885,-782.0763 415.7068,-766.7552 474.0858,-755.1118"/>
<polygon fill="#000000" stroke="#000000" points="474.9031,-758.5178 484.0253,-753.1294 473.5338,-751.653 474.9031,-758.5178"/>
</g>
<!-- i2 = i2 + i3&#45;&gt;i3 = i3 + 2 -->
<g id="edge8" class="edge">
<title>i2 = i2 + i3&#45;&gt;i3 = i3 + 2</title>
<path fill="none" stroke="#000000" d="M118.8824,-719.8314C118.8824,-712.131 118.8824,-702.9743 118.8824,-694.4166"/>
<polygon fill="#000000" stroke="#000000" points="122.3825,-694.4132 118.8824,-684.4133 115.3825,-694.4133 122.3825,-694.4132"/>
</g>
<!-- if i5 &lt;= 0 goto (branch) -->
<g id="node14" class="node">
<title>if i5 &lt;= 0 goto (branch)</title>
<ellipse fill="none" stroke="#000000" cx="594.8824" cy="-666" rx="95.5831" ry="18"/>
<text text-anchor="middle" x="594.8824" y="-662.3" font-family="Times,serif" font-size="14.00" fill="#000000">if i5 &lt;= 0 goto (branch)</text>
</g>
<!-- i5 = staticinvoke &lt;TA8: int foo()&gt;()&#45;&gt;if i5 &lt;= 0 goto (branch) -->
<g id="edge9" class="edge">
<title>i5 = staticinvoke &lt;TA8: int foo()&gt;()&#45;&gt;if i5 &lt;= 0 goto (branch)</title>
<path fill="none" stroke="#000000" d="M568.7143,-719.8314C572.581,-711.8771 577.203,-702.369 581.4792,-693.5723"/>
<polygon fill="#000000" stroke="#000000" points="584.7073,-694.9371 585.9315,-684.4133 578.4117,-691.8768 584.7073,-694.9371"/>
</g>
<!-- if i5 &lt;= 0 goto (branch)&#45;&gt;if b0 &lt;= i3 goto $r2 = &lt;java.lang.System: java.io.PrintStream out&gt; -->
<g id="edge12" class="edge">
<title>if i5 &lt;= 0 goto (branch)&#45;&gt;if b0 &lt;= i3 goto $r2 = &lt;java.lang.System: java.io.PrintStream out&gt;</title>
<path fill="none" stroke="#000000" d="M558.2368,-649.3008C536.5076,-639.3988 508.7088,-626.731 485.2011,-616.0187"/>
<polygon fill="#000000" stroke="#000000" points="486.6419,-612.829 476.0908,-611.8671 483.7391,-619.1988 486.6419,-612.829"/>
</g>
<!-- i5 = i5 &#45; 5 -->
<g id="node16" class="node">
<title>i5 = i5 &#45; 5</title>
<ellipse fill="none" stroke="#000000" cx="752.8824" cy="-594" rx="46.5926" ry="18"/>
<text text-anchor="middle" x="752.8824" y="-590.3" font-family="Times,serif" font-size="14.00" fill="#000000">i5 = i5 &#45; 5</text>
</g>
<!-- if i5 &lt;= 0 goto (branch)&#45;&gt;i5 = i5 &#45; 5 -->
<g id="edge11" class="edge">
<title>if i5 &lt;= 0 goto (branch)&#45;&gt;i5 = i5 &#45; 5</title>
<path fill="none" stroke="#000000" d="M626.4862,-648.937C650.5404,-637.4187 683.7598,-622.2847 710.1622,-610.8181"/>
<polygon fill="#000000" stroke="#000000" points="711.7523,-613.9441 719.5514,-606.773 708.9826,-607.5154 711.7523,-613.9441"/>
</g>
<!-- i4 = i4 + 1&#45;&gt;if i4 &gt;= 10 goto i5 = staticinvoke &lt;TA8: int foo()&gt;() -->
<g id="edge13" class="edge">
<title>i4 = i4 + 1&#45;&gt;if i4 &gt;= 10 goto i5 = staticinvoke &lt;TA8: int foo()&gt;()</title>
<path fill="none" stroke="#000000" d="M142.6867,-609.9536C154.9571,-619.4978 168.9708,-632.7303 176.8824,-648 199.0329,-690.7518 201.4875,-747.9808 200.6229,-781.7271"/>
<polygon fill="#000000" stroke="#000000" points="197.122,-781.6867 200.2463,-791.8104 204.1171,-781.948 197.122,-781.6867"/>
</g>
<!-- i5 = i5 &#45; 5&#45;&gt;if i5 &lt;= 0 goto (branch) -->
<g id="edge14" class="edge">
<title>i5 = i5 &#45; 5&#45;&gt;if i5 &lt;= 0 goto (branch)</title>
<path fill="none" stroke="#000000" d="M725.9744,-608.8039C703.9708,-619.4418 672.4007,-633.9148 645.7096,-645.6401"/>
<polygon fill="#000000" stroke="#000000" points="644.2605,-642.4537 636.4958,-649.6621 647.0609,-648.8691 644.2605,-642.4537"/>
</g>
<!-- if i2 &gt;= i3 goto $r2 = &lt;java.lang.System: java.io.PrintStream out&gt;&#45;&gt;$r2 = &lt;java.lang.System: java.io.PrintStream out&gt; -->
<g id="edge18" class="edge">
<title>if i2 &gt;= i3 goto $r2 = &lt;java.lang.System: java.io.PrintStream out&gt;&#45;&gt;$r2 = &lt;java.lang.System: java.io.PrintStream out&gt;</title>
<path fill="none" stroke="#000000" d="M482.0983,-505.2368C440.6265,-495.9036 397.9281,-483.1136 383.8824,-468 330.602,-410.6689 329.7924,-310.6932 333.0463,-262.1077"/>
<polygon fill="#000000" stroke="#000000" points="336.5458,-262.2484 333.8333,-252.0066 329.567,-261.7045 336.5458,-262.2484"/>
</g>
<!-- $r0 = &lt;java.lang.System: java.io.PrintStream out&gt; -->
<g id="node18" class="node">
<title>$r0 = &lt;java.lang.System: java.io.PrintStream out&gt;</title>
<ellipse fill="none" stroke="#000000" cx="584.8824" cy="-450" rx="191.9663" ry="18"/>
<text text-anchor="middle" x="584.8824" y="-446.3" font-family="Times,serif" font-size="14.00" fill="#000000">$r0 = &lt;java.lang.System: java.io.PrintStream out&gt;</text>
</g>
<!-- if i2 &gt;= i3 goto $r2 = &lt;java.lang.System: java.io.PrintStream out&gt;&#45;&gt;$r0 = &lt;java.lang.System: java.io.PrintStream out&gt; -->
<g id="edge17" class="edge">
<title>if i2 &gt;= i3 goto $r2 = &lt;java.lang.System: java.io.PrintStream out&gt;&#45;&gt;$r0 = &lt;java.lang.System: java.io.PrintStream out&gt;</title>
<path fill="none" stroke="#000000" d="M577.4058,-503.8314C578.4753,-496.131 579.747,-486.9743 580.9356,-478.4166"/>
<polygon fill="#000000" stroke="#000000" points="584.4159,-478.7997 582.325,-468.4133 577.4825,-477.8367 584.4159,-478.7997"/>
</g>
<!-- $i1 = b0 + i3 -->
<g id="node19" class="node">
<title>$i1 = b0 + i3</title>
<ellipse fill="none" stroke="#000000" cx="589.8824" cy="-378" rx="57.6901" ry="18"/>
<text text-anchor="middle" x="589.8824" y="-374.3" font-family="Times,serif" font-size="14.00" fill="#000000">$i1 = b0 + i3</text>
</g>
<!-- $r0 = &lt;java.lang.System: java.io.PrintStream out&gt;&#45;&gt;$i1 = b0 + i3 -->
<g id="edge20" class="edge">
<title>$r0 = &lt;java.lang.System: java.io.PrintStream out&gt;&#45;&gt;$i1 = b0 + i3</title>
<path fill="none" stroke="#000000" d="M586.1441,-431.8314C586.6788,-424.131 587.3147,-414.9743 587.909,-406.4166"/>
<polygon fill="#000000" stroke="#000000" points="591.4024,-406.6317 588.6037,-396.4133 584.4192,-406.1467 591.4024,-406.6317"/>
</g>
<!-- virtualinvoke $r0.&lt;java.io.PrintStream: void println(int)&gt;($i1) -->
<g id="node20" class="node">
<title>virtualinvoke $r0.&lt;java.io.PrintStream: void println(int)&gt;($i1)</title>
<ellipse fill="none" stroke="#000000" cx="595.8824" cy="-306" rx="232.0588" ry="18"/>
<text text-anchor="middle" x="595.8824" y="-302.3" font-family="Times,serif" font-size="14.00" fill="#000000">virtualinvoke $r0.&lt;java.io.PrintStream: void println(int)&gt;($i1)</text>
</g>
<!-- $i1 = b0 + i3&#45;&gt;virtualinvoke $r0.&lt;java.io.PrintStream: void println(int)&gt;($i1) -->
<g id="edge22" class="edge">
<title>$i1 = b0 + i3&#45;&gt;virtualinvoke $r0.&lt;java.io.PrintStream: void println(int)&gt;($i1)</title>
<path fill="none" stroke="#000000" d="M591.3964,-359.8314C592.0381,-352.131 592.8012,-342.9743 593.5143,-334.4166"/>
<polygon fill="#000000" stroke="#000000" points="597.0053,-334.6694 594.3479,-324.4133 590.0295,-334.088 597.0053,-334.6694"/>
</g>
<!-- virtualinvoke $r0.&lt;java.io.PrintStream: void println(int)&gt;($i1)&#45;&gt;$r2 = &lt;java.lang.System: java.io.PrintStream out&gt; -->
<g id="edge24" class="edge">
<title>virtualinvoke $r0.&lt;java.io.PrintStream: void println(int)&gt;($i1)&#45;&gt;$r2 = &lt;java.lang.System: java.io.PrintStream out&gt;</title>
<path fill="none" stroke="#000000" d="M533.275,-288.6626C495.32,-278.152 446.7713,-264.7077 407.3196,-253.7826"/>
<polygon fill="#000000" stroke="#000000" points="408.0688,-250.3584 397.4974,-251.0626 406.2006,-257.1046 408.0688,-250.3584"/>
</g>
</g>
</svg>
