<?xml version="1.0" encoding="UTF-8" standalone="no"?>
<!DOCTYPE svg PUBLIC "-//W3C//DTD SVG 1.1//EN"
 "http://www.w3.org/Graphics/SVG/1.1/DTD/svg11.dtd">
<!-- Generated by graphviz version 2.40.1 (20161225.0304)
 -->
<!-- Title: G Pages: 1 -->
<svg width="393pt" height="1052pt"
 viewBox="0.00 0.00 392.77 1052.00" xmlns="http://www.w3.org/2000/svg" xmlns:xlink="http://www.w3.org/1999/xlink">
<g id="graph0" class="graph" transform="scale(1 1) rotate(0) translate(4 1048)">
<title>G</title>
<polygon fill="#ffffff" stroke="transparent" points="-4,4 -4,-1048 388.7659,-1048 388.7659,4 -4,4"/>
<!-- $r2 = new TA9 -->
<g id="node1" class="node">
<title>$r2 = new TA9</title>
<ellipse fill="none" stroke="#ff0000" cx="192.3829" cy="-738" rx="65.7887" ry="18"/>
<text text-anchor="middle" x="192.3829" y="-734.3" font-family="Times,serif" font-size="14.00" fill="#000000">$r2 = new TA9</text>
</g>
<!-- specialinvoke $r2.&lt;TA9: void &lt;init&gt;()&gt;() -->
<g id="node2" class="node">
<title>specialinvoke $r2.&lt;TA9: void &lt;init&gt;()&gt;()</title>
<ellipse fill="none" stroke="#ff0000" cx="192.3829" cy="-666" rx="159.4721" ry="18"/>
<text text-anchor="middle" x="192.3829" y="-662.3" font-family="Times,serif" font-size="14.00" fill="#000000">specialinvoke $r2.&lt;TA9: void &lt;init&gt;()&gt;()</text>
</g>
<!-- $r2 = new TA9&#45;&gt;specialinvoke $r2.&lt;TA9: void &lt;init&gt;()&gt;() -->
<g id="edge5" class="edge">
<title>$r2 = new TA9&#45;&gt;specialinvoke $r2.&lt;TA9: void &lt;init&gt;()&gt;()</title>
<path fill="none" stroke="#000000" d="M192.3829,-719.8314C192.3829,-712.131 192.3829,-702.9743 192.3829,-694.4166"/>
<polygon fill="#000000" stroke="#000000" points="195.883,-694.4132 192.3829,-684.4133 188.883,-694.4133 195.883,-694.4132"/>
</g>
<!-- r3 = $r2 -->
<g id="node3" class="node">
<title>r3 = $r2</title>
<ellipse fill="none" stroke="#ff0000" cx="192.3829" cy="-594" rx="40.0939" ry="18"/>
<text text-anchor="middle" x="192.3829" y="-590.3" font-family="Times,serif" font-size="14.00" fill="#000000">r3 = $r2</text>
</g>
<!-- specialinvoke $r2.&lt;TA9: void &lt;init&gt;()&gt;()&#45;&gt;r3 = $r2 -->
<g id="edge6" class="edge">
<title>specialinvoke $r2.&lt;TA9: void &lt;init&gt;()&gt;()&#45;&gt;r3 = $r2</title>
<path fill="none" stroke="#000000" d="M192.3829,-647.8314C192.3829,-640.131 192.3829,-630.9743 192.3829,-622.4166"/>
<polygon fill="#000000" stroke="#000000" points="195.883,-622.4132 192.3829,-612.4133 188.883,-622.4133 195.883,-622.4132"/>
</g>
<!-- $r4 = new TA9 -->
<g id="node4" class="node">
<title>$r4 = new TA9</title>
<ellipse fill="none" stroke="#ff0000" cx="192.3829" cy="-522" rx="65.7887" ry="18"/>
<text text-anchor="middle" x="192.3829" y="-518.3" font-family="Times,serif" font-size="14.00" fill="#000000">$r4 = new TA9</text>
</g>
<!-- r3 = $r2&#45;&gt;$r4 = new TA9 -->
<g id="edge7" class="edge">
<title>r3 = $r2&#45;&gt;$r4 = new TA9</title>
<path fill="none" stroke="#000000" d="M192.3829,-575.8314C192.3829,-568.131 192.3829,-558.9743 192.3829,-550.4166"/>
<polygon fill="#000000" stroke="#000000" points="195.883,-550.4132 192.3829,-540.4133 188.883,-550.4133 195.883,-550.4132"/>
</g>
<!-- specialinvoke $r4.&lt;TA9: void &lt;init&gt;()&gt;() -->
<g id="node5" class="node">
<title>specialinvoke $r4.&lt;TA9: void &lt;init&gt;()&gt;()</title>
<ellipse fill="none" stroke="#ff0000" cx="192.3829" cy="-450" rx="159.4721" ry="18"/>
<text text-anchor="middle" x="192.3829" y="-446.3" font-family="Times,serif" font-size="14.00" fill="#000000">specialinvoke $r4.&lt;TA9: void &lt;init&gt;()&gt;()</text>
</g>
<!-- $r4 = new TA9&#45;&gt;specialinvoke $r4.&lt;TA9: void &lt;init&gt;()&gt;() -->
<g id="edge8" class="edge">
<title>$r4 = new TA9&#45;&gt;specialinvoke $r4.&lt;TA9: void &lt;init&gt;()&gt;()</title>
<path fill="none" stroke="#000000" d="M192.3829,-503.8314C192.3829,-496.131 192.3829,-486.9743 192.3829,-478.4166"/>
<polygon fill="#000000" stroke="#000000" points="195.883,-478.4132 192.3829,-468.4133 188.883,-478.4133 195.883,-478.4132"/>
</g>
<!-- r5 = $r4 -->
<g id="node6" class="node">
<title>r5 = $r4</title>
<ellipse fill="none" stroke="#ff0000" cx="192.3829" cy="-378" rx="40.0939" ry="18"/>
<text text-anchor="middle" x="192.3829" y="-374.3" font-family="Times,serif" font-size="14.00" fill="#000000">r5 = $r4</text>
</g>
<!-- specialinvoke $r4.&lt;TA9: void &lt;init&gt;()&gt;()&#45;&gt;r5 = $r4 -->
<g id="edge9" class="edge">
<title>specialinvoke $r4.&lt;TA9: void &lt;init&gt;()&gt;()&#45;&gt;r5 = $r4</title>
<path fill="none" stroke="#000000" d="M192.3829,-431.8314C192.3829,-424.131 192.3829,-414.9743 192.3829,-406.4166"/>
<polygon fill="#000000" stroke="#000000" points="195.883,-406.4132 192.3829,-396.4133 188.883,-406.4133 195.883,-406.4132"/>
</g>
<!-- r1.&lt;TA9: TA9 f&gt; = r5 -->
<g id="node13" class="node">
<title>r1.&lt;TA9: TA9 f&gt; = r5</title>
<ellipse fill="none" stroke="#000000" cx="192.3829" cy="-306" rx="90.9839" ry="18"/>
<text text-anchor="middle" x="192.3829" y="-302.3" font-family="Times,serif" font-size="14.00" fill="#000000">r1.&lt;TA9: TA9 f&gt; = r5</text>
</g>
<!-- r5 = $r4&#45;&gt;r1.&lt;TA9: TA9 f&gt; = r5 -->
<g id="edge10" class="edge">
<title>r5 = $r4&#45;&gt;r1.&lt;TA9: TA9 f&gt; = r5</title>
<path fill="none" stroke="#000000" d="M192.3829,-359.8314C192.3829,-352.131 192.3829,-342.9743 192.3829,-334.4166"/>
<polygon fill="#000000" stroke="#000000" points="195.883,-334.4132 192.3829,-324.4133 188.883,-334.4133 195.883,-334.4132"/>
</g>
<!-- r5.&lt;TA9: TA9 f&gt; = r3 -->
<g id="node7" class="node">
<title>r5.&lt;TA9: TA9 f&gt; = r3</title>
<ellipse fill="none" stroke="#ff0000" cx="192.3829" cy="-234" rx="90.9839" ry="18"/>
<text text-anchor="middle" x="192.3829" y="-230.3" font-family="Times,serif" font-size="14.00" fill="#000000">r5.&lt;TA9: TA9 f&gt; = r3</text>
</g>
<!-- r3.&lt;TA9: TA9 f&gt; = r1 -->
<g id="node14" class="node">
<title>r3.&lt;TA9: TA9 f&gt; = r1</title>
<ellipse fill="none" stroke="#000000" cx="192.3829" cy="-162" rx="90.9839" ry="18"/>
<text text-anchor="middle" x="192.3829" y="-158.3" font-family="Times,serif" font-size="14.00" fill="#000000">r3.&lt;TA9: TA9 f&gt; = r1</text>
</g>
<!-- r5.&lt;TA9: TA9 f&gt; = r3&#45;&gt;r3.&lt;TA9: TA9 f&gt; = r1 -->
<g id="edge12" class="edge">
<title>r5.&lt;TA9: TA9 f&gt; = r3&#45;&gt;r3.&lt;TA9: TA9 f&gt; = r1</title>
<path fill="none" stroke="#000000" d="M192.3829,-215.8314C192.3829,-208.131 192.3829,-198.9743 192.3829,-190.4166"/>
<polygon fill="#000000" stroke="#000000" points="195.883,-190.4132 192.3829,-180.4133 188.883,-190.4133 195.883,-190.4132"/>
</g>
<!-- staticinvoke &lt;Slice: void slicingCriteria(TA9)&gt;(r5) -->
<g id="node8" class="node">
<title>staticinvoke &lt;Slice: void slicingCriteria(TA9)&gt;(r5)</title>
<ellipse fill="none" stroke="#ff0000" cx="192.3829" cy="-90" rx="192.2659" ry="18"/>
<text text-anchor="middle" x="192.3829" y="-86.3" font-family="Times,serif" font-size="14.00" fill="#000000">staticinvoke &lt;Slice: void slicingCriteria(TA9)&gt;(r5)</text>
</g>
<!-- return -->
<g id="node15" class="node">
<title>return</title>
<ellipse fill="none" stroke="#000000" cx="192.3829" cy="-18" rx="31.6951" ry="18"/>
<text text-anchor="middle" x="192.3829" y="-14.3" font-family="Times,serif" font-size="14.00" fill="#000000">return</text>
</g>
<!-- staticinvoke &lt;Slice: void slicingCriteria(TA9)&gt;(r5)&#45;&gt;return -->
<g id="edge14" class="edge">
<title>staticinvoke &lt;Slice: void slicingCriteria(TA9)&gt;(r5)&#45;&gt;return</title>
<path fill="none" stroke="#000000" d="M192.3829,-71.8314C192.3829,-64.131 192.3829,-54.9743 192.3829,-46.4166"/>
<polygon fill="#000000" stroke="#000000" points="195.883,-46.4132 192.3829,-36.4133 188.883,-46.4133 195.883,-46.4132"/>
</g>
<!-- r6 := @parameter0: java.lang.String[] -->
<g id="node9" class="node">
<title>r6 := @parameter0: java.lang.String[]</title>
<ellipse fill="none" stroke="#000000" cx="192.3829" cy="-1026" rx="145.6742" ry="18"/>
<text text-anchor="middle" x="192.3829" y="-1022.3" font-family="Times,serif" font-size="14.00" fill="#000000">r6 := @parameter0: java.lang.String[]</text>
</g>
<!-- $r0 = new TA9 -->
<g id="node10" class="node">
<title>$r0 = new TA9</title>
<ellipse fill="none" stroke="#000000" cx="192.3829" cy="-954" rx="65.7887" ry="18"/>
<text text-anchor="middle" x="192.3829" y="-950.3" font-family="Times,serif" font-size="14.00" fill="#000000">$r0 = new TA9</text>
</g>
<!-- r6 := @parameter0: java.lang.String[]&#45;&gt;$r0 = new TA9 -->
<g id="edge1" class="edge">
<title>r6 := @parameter0: java.lang.String[]&#45;&gt;$r0 = new TA9</title>
<path fill="none" stroke="#000000" d="M192.3829,-1007.8314C192.3829,-1000.131 192.3829,-990.9743 192.3829,-982.4166"/>
<polygon fill="#000000" stroke="#000000" points="195.883,-982.4132 192.3829,-972.4133 188.883,-982.4133 195.883,-982.4132"/>
</g>
<!-- specialinvoke $r0.&lt;TA9: void &lt;init&gt;()&gt;() -->
<g id="node11" class="node">
<title>specialinvoke $r0.&lt;TA9: void &lt;init&gt;()&gt;()</title>
<ellipse fill="none" stroke="#000000" cx="192.3829" cy="-882" rx="159.4721" ry="18"/>
<text text-anchor="middle" x="192.3829" y="-878.3" font-family="Times,serif" font-size="14.00" fill="#000000">specialinvoke $r0.&lt;TA9: void &lt;init&gt;()&gt;()</text>
</g>
<!-- $r0 = new TA9&#45;&gt;specialinvoke $r0.&lt;TA9: void &lt;init&gt;()&gt;() -->
<g id="edge2" class="edge">
<title>$r0 = new TA9&#45;&gt;specialinvoke $r0.&lt;TA9: void &lt;init&gt;()&gt;()</title>
<path fill="none" stroke="#000000" d="M192.3829,-935.8314C192.3829,-928.131 192.3829,-918.9743 192.3829,-910.4166"/>
<polygon fill="#000000" stroke="#000000" points="195.883,-910.4132 192.3829,-900.4133 188.883,-910.4133 195.883,-910.4132"/>
</g>
<!-- r1 = $r0 -->
<g id="node12" class="node">
<title>r1 = $r0</title>
<ellipse fill="none" stroke="#000000" cx="192.3829" cy="-810" rx="40.0939" ry="18"/>
<text text-anchor="middle" x="192.3829" y="-806.3" font-family="Times,serif" font-size="14.00" fill="#000000">r1 = $r0</text>
</g>
<!-- specialinvoke $r0.&lt;TA9: void &lt;init&gt;()&gt;()&#45;&gt;r1 = $r0 -->
<g id="edge3" class="edge">
<title>specialinvoke $r0.&lt;TA9: void &lt;init&gt;()&gt;()&#45;&gt;r1 = $r0</title>
<path fill="none" stroke="#000000" d="M192.3829,-863.8314C192.3829,-856.131 192.3829,-846.9743 192.3829,-838.4166"/>
<polygon fill="#000000" stroke="#000000" points="195.883,-838.4132 192.3829,-828.4133 188.883,-838.4133 195.883,-838.4132"/>
</g>
<!-- r1 = $r0&#45;&gt;$r2 = new TA9 -->
<g id="edge4" class="edge">
<title>r1 = $r0&#45;&gt;$r2 = new TA9</title>
<path fill="none" stroke="#000000" d="M192.3829,-791.8314C192.3829,-784.131 192.3829,-774.9743 192.3829,-766.4166"/>
<polygon fill="#000000" stroke="#000000" points="195.883,-766.4132 192.3829,-756.4133 188.883,-766.4133 195.883,-766.4132"/>
</g>
<!-- r1.&lt;TA9: TA9 f&gt; = r5&#45;&gt;r5.&lt;TA9: TA9 f&gt; = r3 -->
<g id="edge11" class="edge">
<title>r1.&lt;TA9: TA9 f&gt; = r5&#45;&gt;r5.&lt;TA9: TA9 f&gt; = r3</title>
<path fill="none" stroke="#000000" d="M192.3829,-287.8314C192.3829,-280.131 192.3829,-270.9743 192.3829,-262.4166"/>
<polygon fill="#000000" stroke="#000000" points="195.883,-262.4132 192.3829,-252.4133 188.883,-262.4133 195.883,-262.4132"/>
</g>
<!-- r3.&lt;TA9: TA9 f&gt; = r1&#45;&gt;staticinvoke &lt;Slice: void slicingCriteria(TA9)&gt;(r5) -->
<g id="edge13" class="edge">
<title>r3.&lt;TA9: TA9 f&gt; = r1&#45;&gt;staticinvoke &lt;Slice: void slicingCriteria(TA9)&gt;(r5)</title>
<path fill="none" stroke="#000000" d="M192.3829,-143.8314C192.3829,-136.131 192.3829,-126.9743 192.3829,-118.4166"/>
<polygon fill="#000000" stroke="#000000" points="195.883,-118.4132 192.3829,-108.4133 188.883,-118.4133 195.883,-118.4132"/>
</g>
</g>
</svg>
